<?xml version="1.0" encoding="UTF-8"?>
<svg id="Layer_2" data-name="Layer 2" xmlns="http://www.w3.org/2000/svg" viewBox="0 0 166.77 115.37">
  <defs>
    <style>
      .cls-1 {
        fill: #eaeaea;
      }

      .cls-1, .cls-2, .cls-3, .cls-4, .cls-5, .cls-6, .cls-7, .cls-8, .cls-9, .cls-10, .cls-11, .cls-12, .cls-13, .cls-14, .cls-15, .cls-16, .cls-17, .cls-18, .cls-19, .cls-20, .cls-21, .cls-22, .cls-23, .cls-24 {
        stroke-width: 0px;
      }

      .cls-2 {
        fill: #d8d8d8;
      }

      .cls-3 {
        fill: #222;
      }

      .cls-4 {
        fill: #1b1b1b;
      }

      .cls-5 {
        fill: #141414;
      }

      .cls-6 {
        fill: #b8171d;
      }

      .cls-7 {
        fill: #eb1e26;
      }

      .cls-8 {
        fill: #959595;
      }

      .cls-9 {
        fill: #040303;
      }

      .cls-10 {
        fill: #c7c7c7;
      }

      .cls-11 {
        fill: #2a2a2a;
      }

      .cls-12 {
        fill: #101010;
      }

      .cls-13 {
        fill: #ddd;
      }

      .cls-14 {
        fill: #f2787d;
      }

      .cls-15 {
        fill: #f2f2f2;
      }

      .cls-16 {
        fill: #fefefe;
      }

      .cls-17 {
        fill: #6c6b6c;
      }

      .cls-18 {
        fill: #070505;
      }

      .cls-19 {
        fill: #e81c24;
      }

      .cls-20 {
        fill: #ed2b32;
      }

      .cls-21 {
        fill: #0a0a0a;
      }

      .cls-22 {
        fill: #d5d5d5;
      }

      .cls-23 {
        fill: #4a4a4a;
      }

      .cls-24 {
        fill: #e5e5e5;
      }
    </style>
  </defs>
  <g id="Layer_1-2" data-name="Layer 1">
    <g>
      <path class="cls-16" d="M114.46,34.78c.14-.13.27-.26.41-.39,1.15-.12,1.85-.92,2.6-1.66.84-.84,1.65-1.66,2.85-2.04,1.03-.33,1.7-1.14,2.15-2.17.26-.59.6-1.35,1.1-1.57,1.31-.56,2.49-1.55,4.04-1.44,0,0,.12.14.12.14-.04.21-.09.43-.17.82,2.3-.5,4.32-1.2,6.33-1.93.1-.04.15-.2.23-.3.59-.06,1.18-.18,1.76-.14.3.02.58.35.97.61,1.24-.73,3.2-.14,4.12-1.91.02-.05.11-.07.17-.09,1.23-.43,2.37-1.12,3.75-1.13.69,0,1.46.14,2.08-.38.57-.15,1.14-.41,1.72-.44,2.12-.09,4.21-.4,6.29-.75.32-.05.71-.12.98,0,.94.42,1.82-.16,2.74-.09.92.07,1.85.07,2.62-.65.15-.15.51-.08.77-.11,1.38-.16,2.76-.3,4.13-.49.2-.03.37-.3.56-.46-.16-.18-.31-.5-.48-.52-1.06-.08-2.12-.09-3.18-.14-.08,0-.16-.11-.37-.26.53-.1.95-.18,1.57-.29-.33-.41-.54-.89-.78-.91-1.05-.1-2.09-.17-3.15.17-1.95.63-3.92,1.14-6.03.75-1.15-.21-2.35-.14-3.52-.2-.93.07-1.85-.38-2.78,0-1.92.08-3.83.14-5.74-.21-.18-.03-.39-.05-.57-.02-2.46.51-4.95.77-7.46.62-.33-.02-.67,0-.98.08-1.35.32-2.69.67-4.03,1.01-.84-.56-1.62-.23-2.4.16-.72.11-1.44.28-2.16.3-1.82.07-3.51.57-5.21,1.16-.86.3-1.77.46-2.73.47-1.32.01-2.63.3-3.77,1.1-.53.37-1.16.61-1.75.91-.52-.35-.93-.69-1.39-.93-.42-.22-.9-.35-1.55-.59.59-.28.97-.47,1.49-.71-.45-.2-.74-.43-1.05-.44-.84-.03-1.34-.92-2.21-.82-.72-.93-1.76-.8-2.73-.74-.79.05-1.59.22-2.34.45-1.11.34-2.2.37-3.32.1-.36-.7-1.06-.83-1.72-1.02-.06-.12-.15-.17-.28-.17-.9-1.29-2.11-2.22-3.46-2.99-.15-.14-.3-.28-.45-.42.19-.05.38-.11.58-.16,1.01-.27,1.3-1.08,1.36-1.97.05-.78-.63-1.36-1.73-1.6-.19-.04-.38-.04-.63-.07-.06-.26-.08-.53-.17-.76-.28-.73-.64-.95-1.35-.81-.32.06-.67.15-.91.34-.52.41-1.03.78-1.67,1.03-.44.17-.89.67-1.06,1.12-.39,1.04-.85,2.11-.37,3.28.14.34.1.76.14,1.14-.24.07-.5.22-.71.18-1.6-.31-3.18-.66-4.84-.57-1.12.06-2.25-.17-3.37-.2-1.02-.02-1.95-.3-2.84-.78-1.9-1.03-3.05-2.76-3.94-4.6-.53-1.1-1.2-1.68-2.31-1.88-.52-.09-1.04-.15-1.56-.22-.79-.08-1.59-.16-2.38-.25,0-.78-.78-.62-1.16-.94.29-.34.78-.64.85-1.02.21-1.13-.37-2.2-1.48-2.5-.78-.22-1.23-.71-1.67-1.24-1.61.52-2.04.67-2.25,1.21-.18.46-.17,1-.21,1.33.49.56.84.95,1.18,1.34-.08.08-.11.17-.07.27-.13.01-.3-.02-.37.05-.55.49-1.15.91-1.84,1.21-.13.06-.18.33-.26.5-1.99.02-3.98.04-5.97.05-.15-.2-.3-.4-.48-.64.51-.29.92-.53,1.32-.77-1.11-2.2-2.59-3.48-3.74-3.27-.46.34-.93.7-1.41,1.06-1.24-.52-2.26.11-3.26.57-.07.7-.13,1.35-.2,2.1-1.11-.06-1.52.75-2,1.43-.56.8-.09,1.65-.1,2.46,1.02.64,2.06.94,3.21.63.46-.44.93-.88,1.33-1.26.79.17,1.3.48,1.37,1.16.13,1.23.84,1.69,2.01,1.63.17,0,.35.15.6.26.76-.97,1.9-.92,3.01-.97.11.12.21.24.32.35.31.87-.31,1.61-.44,2.48.31.14.53.29.77.33,1.11.17,2.05-.3,2.98-.8l.09.07.11-.03c1.33-.25,1.85-.75,2.49-2.43-.92-.51-1.48-1.37-1.83-2.37h3.77c.12.55,0,1.23.81,1.51,1.06-.32,2-.84,2.39-2.04,1.52-.03,3.05-.09,4.25.51,1.13,1.74,2.12,3.27,3.17,4.89-.55.21-1.06.33-1.49.57-.46.26-.84.64-1.27.95-1.08.79-2.24,1.39-3.59,1.57-.86-1.22-2.18-1.91-3.31-2.81-2.04.12-2.23.29-3.03,2.8-.53-.22-1.06-.43-1.63-.66-.89,1.18-.85,2.44-.41,3.62.35.94,1.08,1.66,2.24,1.47.15.54.27.96.42,1.48,2.11.27,3.91-.57,5.8-1.28.19-.88.38-1.71.56-2.54.8-.46,1.69-.82,2.4-1.4,1.53-1.24,3.33-1.83,4.8-2.45,1.33.29,2.35.56,3.39.72,1.05.16,2.12.17,3.17.33,4.98.76,9.95,1.54,14.93,2.32,0,0,0,0,0,0,.16.03.33.06.49.1l.82.33c.06.17.13.34.17.45-1.92.54-3.79,1.08-5.56,1.58-.18.62-.19,1.15-.46,1.47-.85,1.05-1.13,2.36-1.76,3.51-.25.46-.55.9-.82,1.34-.22.14-.44.28-.65.42-1.09.72-2.04,1.68-3.54,1.58-.49-.03-.73.51-.69,1.15,1.24-.18,2.47-.35,3.7-.52-.84.74-1.69,1.42-2.87,1.55-.68.08-1.24.43-1.72.93-.19-.1-.37-.2-.56-.3-.54-.09-1.07-.19-1.61-.28-.25-.2-.53-.36-.74-.59-1.12-1.27-2.47-1.26-3.94-.79-.62.2-1.27.32-1.91.44-.48.09-.91-.02-1.18-.49.02-.19.12-.5.05-.55-1.14-.76-2.47-.64-3.75-.74-.05,0-.12.05-.14.1-.37.83-1.31.46-1.87.9-1.14-.35-2.26-.3-3.34.21-1.92.53-3.83,1.05-5.75,1.58-.32.09-.64.23-.96.24-1.65.04-3.06.68-4.4,1.57-.44.29-.9.56-1.37.77-1.99.9-4.17,1.29-6.09,2.38-.45.25-1,.36-1.52.44-1.11.18-2.24.26-3.35.44-1.82.3-3.7.36-5.42,1.15-.23.11-.52.07-.78.11-.13-.26-.26-.53-.4-.83-.84.05-1.65.1-2.47.14l-4.62.11c-.16-.1-.32-.2-.48-.3.96-.6,1.27-1.56,1.41-2.61.34-.12.68-.24,1.02-.36.28.28.54.59.86.82,1.2.84,2.82.45,3.58-.84.53-.9.16-2.06-.86-2.43-.75-.26-1.45-.44-2.01-1.12-.73-.9-1.88-.73-2.42.28-.21.4-.27.88-.4,1.32-.12.28-.23.57-.35.85-1.33-.75-1.69-.75-2.46-.02-.69.66-.84,2.17-.13,2.44.89.34,1.25,1.09,1.84,1.66-.18.14-.35.27-.53.41-2.31.47-4.63.28-6.96.14-2.99-.18-5.99-.11-8.99-.15-.2,0-.4.02-.6.05-1.65.19-3.3.38-4.95.57-2.02.16-2.19.21-2.93,1.03h2.04c0,.22,0,.44,0,.66-.46.27-.9.54-.81,1.21.13.95-.34,1.58-1.11,2.11-.67.46-.65.85-.17,1.49.69.91,1.57,1.4,2.72,1.34.99-.05,1.95-.04,2.94.15,1.43.28,2.39-.45,2.88-1.81.16-.44.27-.89.46-1.31.45-.96.32-1.78-.43-2.53-.14-.14-.22-.33-.33-.5,2.78.08,5.57.09,8.34.28,2.2.15,4.37.17,6.56-.06,1.25-.13,2.51-.19,3.77-.29-.03.13-.05.26-.08.4-1.12.4-2.24.81-3.37,1.21-.3.11-.65.15-.91.33-1.26.83-2.49,1.7-3.73,2.55-.28-.52-.51-1.08-.86-1.55-.79-1.03-1.39-1.04-2.59-.13-.75-.25-1.5-.5-2.25-.75-.06-.02-.12-.06-.18-.07-.96-.22-2.23.37-2.44,1.2-.18.72.23,1.55-.43,2.2-.08.07.04.38.11.56.57,1.44,1.92,2.14,3.05,2.99.5.38,1.36.3,2.06.43.04.14.08.28.13.42-.03.11-.07.21-.1.31-3.37,1.33-6.72,2.7-10.11,3.97-1.1.41-2.08.95-2.92,1.66.48-.03.99-.07,1.5-.1.09.18.29.45.25.51-.41.48-.84.81-1.55.52-.48-.2-1.09-.25-1.46.26-.45.62.04,1.13.31,1.64.46.89,1.36,1.21,2.23,1.68-.05.37-.16.76-.15,1.14.01.61.41.95,1.02.99,1.53.09,2.62-.89,2.74-2.47.03-.38.08-.76.12-1.1.24-.05.4-.15.48-.1.27.16.52.36.76.56.72.6,1.18.53,1.55-.27.11-.24.22-.49.29-.74.47-1.61-.39-2.73-2.09-2.67-.35.01-.61,0-.89-.24-.29-.25-.67-.41-1.01-.6,1.11-.71,2.36-1.05,3.63-1.32.13-.03.31.14.46.21h.42c1.61-.02,3.05-.52,4.34-1.47,1.94-.98,3.26-2.47,3.72-4.63.2-.97.73-1.71,1.54-2.22.78-.49,1.58-.97,2.42-1.36,2.58-1.2,5.19-2.33,7.78-3.52.88-.4,1.78-.47,2.72-.42.76.03.55.71.72,1.12,1.67.05,3.13-.6,4.54-1.28,1.62-.79,3.31-1.31,5.04-1.77,2.3-.61,4.6-1.27,6.67-2.5,1,.12,2,.24,3.1.36.09-.29.18-.58.26-.86.25-.08.5-.15.74-.23.37.45.83.4,1.25.14,1-.61,2.16-.55,3.24-.84.8.46,1.54-.1,2.32-.11.04.03.08.06.12.09-.04-.03-.09-.05-.13-.08.29-.49.78-.41,1.24-.43,1.06-.06,2.14-.02,3.17-.22,1.43-.28,2.83-.7,4.23-1.13.94-.29,1.89-.4,2.93-.47v1.3c-.45.34-.9.67-1.36,1.01-.16-.62-.61-.91-1.18-.77-.62.15-1.21.47-1.81.72-.11.01-.23.02-.34.04-.05.01-.1.05-.16.07.08.04.19.13.25.11.1-.04.16-.15.24-.24.44,0,.88-.02,1.32,0,.55.03.73.4.74.89-1.14.32-2.29.59-3.31,1.25-.51.33-1.09.36-1.72.3-2.45-.23-4.64.85-6.91,1.48-.25.07-.45.28-.69.39-.84.41-1.67.79-2.64.76-.91-.02-1.67.37-2.36.92-1,.28-2.11.27-3.16,1.19,1.35.17,2.26-.28,3.15-.79,1.58-.01,3.16-.02,4.74-.04.13,0,.31-.02.38-.1.63-.77,1.55-.55,2.36-.76,1.93-.49,3.88-.66,5.84-.71,1-.02,1.98.04,2.91-.42.17-.08.43.03.94.08-1.56,1.58-2.53,3.19-3.02,5.08-.06.11-.12.24-.2.34-1.08,1.46-1.42,2.99-.67,4.75.49,1.14.85,2.35,1.1,3.56.11.52-.18,1.12-.29,1.69-.61-1.53-1.59-2.53-3.41-2.34-.39.52-.72,1.03-1.5,1.16-.77.13-1.59.57-1.83,1.37-.25.83-.61,1.57-1.01,2.32-.27.5-.04.92.6,1.19.84.35,1.41.85,1.48,1.83.04.52.24,1.02.33,1.53.12.71.63.91,1.23,1.1.81-1.29,1.59-2.53,2.35-3.73.66,0,1.24.32,1.77-.23.48-.5.85-1.01.82-1.72-.01-.26-.13-.51-.19-.76.19-.62.57-1.26.52-1.86-.18-1.97.39-3.88.35-5.84.34-.07.67-.14,1.01-.21.09.13.19.25.28.38-.18.59.48,1.01.23,1.7-.25.66.16,1.02.81.93.71-.1,1.56-.06,1.99-.72.73-1.09,1.92-1.88,2.16-3.28.04-.22-.06-.53-.2-.71-.24-.31-.21-.54-.09-.89.14-.42.15-.9.15-1.35.01-.83-.42-1.31-1.22-1.59-.6-.21-1.1-.31-1.68.07-.43.28-.96.41-1.45.61,0-.28.02-.55.03-.83.77-.98,1.65-1.9,2.27-2.97.85-1.45,1.97-2.48,3.54-3.05.16-.06.26-.26.39-.4-.3-.24-.57-.45-.98-.77,1.76-.47,3.35-.78,4.89-1.34,1.33-.49,2.85-.47,4.28-.67.23.21.53.39.68.65.4.69.7,1.43,1.1,2.1.13.23.41.56.88.18-.12-.69-.54-1.29-.95-1.86-.54-.76,0-1.56-.16-2.32.91-1.19,1.53-2.62,3-3.33.38-.18.7-.63.9-1.03.62-1.21,1.17-2.47,1.75-3.7,0,0,.01-.1.01-.1.29-.31.58-.63.87-.94h2.79c.02-.05.05-.24.13-.28,1.49-.68,2.98-1.35,4.49-2,.17-.07.4-.03.59,0,.91.16,1.83.31,2.74.52.23.05.61.36.59.44-.28.87.58.91.91,1.32.37.46.87.85.72,1.56-.02.07.16.19.3.35.27-.08.57-.17.97-.29.35.95,1.55,1.25,1.83,2.36.05.22.67.29,1.03.44.14.23.28.46.42.69.11.14.22.28.33.42-.04.27-.28.56.07.79l.04-.04c-.55-.48-.82.09-1.11.34-.73.64-1.38,1.37-2.11,2.01-.75.67-1.56,1.28-2.34,1.91-.38.2-.77.4-1.15.6.03-.42.14-.86.08-1.27-.08-.52-.36-.29-.59-.07-2.46,1.69-4.16,4.06-5.74,6.51-.68,1.06-1.36,2.09-2.18,3.04-.74.82-1.49,1.64-2.21,2.47-.06.07.05.29.09.45h.01c-.15-.03-.38-.12-.43-.06-.43.54-.82,1.1-1.23,1.66-.8-.08-1.15.5-1.55,1.03-.34.46-.58,1.09-1.35.96.09-.38.19-.76.28-1.14,0,0-.03.05-.04.05.23-.43.46-.86.7-1.29.36-.26.12-.53.02-.81.49-.24.98-.48,1.59-.78-.25-.61-.45-1.22-.74-1.8-.28-.56-.83-.95-1.42-.94-.9.02-1.8.19-2.68.38-.87.19-1.24.93-1.47,1.7-.19.62.26,1.89.76,2.08.52.2,1.06.57,1.67.24-.02.25-.03.49-.05.74-.09.08-.12.17-.09.28-.46.55-.95.21-1.41.02-.46-.19-.91-.25-1.25.16-.4.48-.73,1.01-1.13,1.58.83.95,1.87,1.19,3.01,1.17-.3,1.14-.59,2.28-.86,3.32-.43.25-.72.42-1,.58-2.85,1.63-5.36,3.65-7.01,6.55-.94,1.66-1.82,3.36-2.68,5.06-.28.55-.2,1.15.17,1.69.76,1.14.49,2.12-.5,2.96-.15-.21-.4-.41-.45-.64-.12-.63-.1-1.22-.59-1.8-.42-.49-.42-1.31-.71-1.94-.11-.25-.48-.38-.7-.53-1.22.53-1.84,1.41-2.13,2.57-.58-.21-1.09-.4-1.69-.61-.26.63-.56,1.16-.68,1.72-.09.43-.09.98.11,1.34.69,1.26,1.2,2.67,2.5,3.5-1.42,1.59-3.24,2.65-5.1,3.63-.27.14-.63.1-.95.14.2-.65-.48-.96-.59-1.49-.08-.28-.16-.55-.24-.83-.32-.77.75-1.08.6-1.78-.37-.56-.93-.44-1.44-.41-.59.03-1.2.06-1.76.22-.45.14-.85.48-1.27.73-.74-.75-1.21-1.86-2.55-1.08-.05.55-.16,1.13-.16,1.71,0,1.45.58,2.23,1.95,2.59.43.11.91-.01,1.37-.03.24,0,.49,0,.73-.01-.03.48-.2.99.23,1.4-.06.23-.11.46-.17.68-.13.15-.25.3-.38.45-.21.06-.41.12-.62.19-.03-.13-.07-.25-.1-.38-.18-.84-.69-1.36-1.52-1.58-.7-.18-1.1.16-1.42.73-.05.09-.22.11-.33.18-1.23.68-1.26.78-.5,1.79.19.26.46.46.69.68-.68.55-1.35,1.09-2.03,1.64.83-.06,1.64-.03,2.19-.71.4-.2.81-.37,1.19-.59.43-.25.83-.54,1.25-.81h0c.39-.19.78-.38,1.17-.57.4-.13.81-.27,1.21-.4.74.32,1.19-.06,1.57-.63,1.12-.37,2.21-.91,3.36-1.07,1.1-.16,1.93-.53,2.73-1.31.82-.79,1.78-1.58,3.11-1.28.11.13.34.32.31.38-.37.67-.68,1.41-1.2,1.96-.74.78-1,1.69-1.05,2.69-.12,2.44-.16,4.88.57,7.27.33,1.07.45,2.19.13,3.31-.04.3-.09.6-.13.9-.34.32-.38.68-.16,1.08-.06.52-.2,1.04-.16,1.56.06.81-.12,1.56-.39,2.3-.17-.09-.34-.2-.52-.28-1.4-.6-1.73-.96-2.1-2.29-.19-.7-.8-.9-1.35-.41-.73.65-1.37,1.38-1.83,2.37.5.37.99.69,1.41,1.08.27.25.42.61.63.92-.21.03-.41.05-.62.08-.42-.35-.95-.74-1.41-.33-.51.46-1.05.41-1.62.51-.34.06-.64.37-.97.58.39,1.41,1.33,2.17,2.51,2.57.14.61.25,1.12.35,1.58-.31.63-.93,1.07-.66,1.93.91.75,1.92.9,3.01.2.23.03.46.06.69.09-.16.67-.33,1.33-.49,2-.41.48-.82.95-1.23,1.43-.26,1.18.23,2.06,1.17,2.71.43.3.81.54,1.1,1.05.64,1.15,2.08,1.28,2.99.35.49-.5.92-1.07,1.38-1.6.42.19.75.34,1.14.52.94-1.18,1.24-2.36.48-3.69.09-.09.11-.2.08-.32.71-1.15.34-2.25-.18-3.32-.25-.52-.94-.57-1.31-.09-.43.55-.79,1.16-1.17,1.73-.81-.28-1.55-.54-2.28-.8.42-1.32.85-2.63,1.26-3.95.5-1.63,1.56-3.06,1.66-4.83,0-.12.1-.24.16-.36.76-1.55.82-2.86.2-4.47.87-.97,1.19-2.12,1.04-3.4-.05-.46-.09-.94-.23-1.37-.7-2.19-.45-4.47-.52-6.7-.06-1.64.16-3.29.25-4.94-.3-.24-.43-.56-.16-.84.6-.61,1.21-1.23,1.89-1.74,1.31-.99,2-2.31,1.98-3.91,0-.82-.36-1.64-.56-2.5,1.04-1,1.77-2.31,2.42-3.61.98-1.96,2.41-3.45,4.07-4.79.14.13.29.27.43.4-.49,1.5-1.15,2.96-1.1,4.59-.12.12-.24.24-.36.36-.87.07-1.51.37-1.59,1.4-.02.25-.36.48-.55.71-.24.29-.47.59-.73.91.46.89,1.24,1.26,1.99,1.63-.09.69-.1,1.37.34,2.15.95-.72,1.78-1.36,2.55-1.95.54,0,1.01.03,1.46,0,.88-.06,1.41-.54,1.72-1.39.55-1.5,0-2.81-.61-4.1-.26-.55-.74-.88-1.41-.96-.43-.05-.83-.28-1.25-.43-.05-.11-.16-.26-.13-.34.68-1.57,1.37-3.14,2.08-4.7.11-.24.24-.49.42-.66,1.15-1.05,2.33-2.09,3.39-3.03.64.15,1.09.25,1.53.36-.11.37-.38.78-.29,1.1.32,1.12.02,2.18-.15,3.26-.02.13-.04.26-.03.39.05.58.5.97,1.07.91.26-.03.55-.05.76-.18.85-.5,1.73-.41,2.65-.29.8.11,1.59.1,1.99-.42.29-1.05.46-1.88.75-2.66.33-.9.29-1.82-.41-2.38-.7-.55-1.64-.93-2.52-.14-.1-.21-.29-.41-.3-.62-.02-.44.06-.88.1-1.33,1.03-1.16,2.05-2.32,2.97-3.35-.07-.39-.22-.7-.14-.93.19-.54.65-1.02.71-1.56.11-1.01.53-1.87.97-2.73.46.16.93.33,1.47.52,0,.42-.03.79,0,1.16.13,1.17.24,1.25,1.63,1.28.11.13.21.26.32.39.08.69.15,1.37.23,2.08,1.52.09,2.72-.16,3.37-1.64.25-.57.74-.63,1.26-.3.31.2.6.42.86.6.83-.5.94-1.27,1.1-1.95.2-.83-.34-1.61-1.2-1.99-.35-.15-.71-.3-1.08-.46-.02-.45-.04-.84-.07-1.23-.04-.59-.44-1-.89-1.24-.3-.16-.75-.03-1.13-.03.28-.35.51-.74.84-1.02.69-.59,1.56-1.01,2.13-1.69.47-.55,1.02-.82,1.63-.99,1.16-.33,2.14-.92,3.02-1.72.13-.13.27-.27.4-.4.13-.13.27-.27.4-.4Z"/>
      <path class="cls-16" d="M79.28,92.64c.05-.08.04-.16-.04-.22,1.15.17,1.5-.68,1.8-1.49.46-1.24-.61-1.73-1.2-2.4-.55-.04-1.01-.05-1.47-.13-.84-.14-1.38.22-1.81.91-.42.67-.24,1.27.11,1.85.19.32.48.59.73.91-.7.8-2.03,1.11-1.58,2.55,1.18.24,2.33.5,3.46-.44,0-.51,0-1.03,0-1.55Z"/>
      <path class="cls-16" d="M65.2,6.01c.97.56,1.93.5,2.82.43,1.36-.11,2.45-.09,2.98,1.5.23.69,1.16.58,1.54-.14.62-1.16,1.3-2.3,1.22-3.79-.54-.64-1.13-1.34-1.73-2.03-.21-.24-.42-.53-.69-.64-1.28-.47-2.57-.94-3.88-1.3-.39-.11-.89.1-1.33.2-.38.09-.74.26-1.11.39-.17.81-.59,1.65-.06,2.45.61.93.69,1.91.24,2.92Z"/>
      <path class="cls-16" d="M57.14,50.58c1.99-.4,2.14-2.08,3.05-3.08.41-.45.4-1.3.54-1.82-.5-.38-1.04-.59-1.17-.95-.34-.92-1.12-1.25-1.83-1.69-.38.24-.77.48-1.19.74-.97-.75-1.92-.64-2.73.12-.58.54-.48,1.53.17,2.81-.41.02-.8,0-1.16.08-1.13.23-1.57,1.3-.93,2.27.21.31.53.66.87.76.81.24,1.7.55,2.5.43.8-.12,1.4.09,1.88.34Z"/>
      <path class="cls-16" d="M37.57,48.46c.66-.89,1.14-1.77.78-2.93-.26-.84-.97-1.06-1.67-1.23-.67-.16-1.15.31-1.43.86-.26.51-.39,1.09-.61,1.7-.37-.13-.72-.25-1.08-.36.79-2.08.5-2.5-1.93-2.98-.2.14-.4.32-.63.43-.82.38-1.37,1.15-2.38,1.33-.58.11-1.12.86-1.53,1.42-.43.6-.19,1.15.45,1.46.69.33,1.38.38,2.12.19,1.98-.53,2.13-.4,2.3,1.76.01.13,0,.27.04.4.12.44.4.68.87.63,1.26-.13,1.91-.66,2.23-1.9.13-.48.14-1,.19-1.33,1.03-.81,1.31.44,2.26.56Z"/>
      <path class="cls-16" d="M75.07,27.79c.69,2.02.73,2.08,2.47,2.15.43.02.71.16,1.06.39,1.15.75,2.16.58,2.58-.61.3-.85.77-1.53,1.27-2.2.75-.99.93-1.98.26-3.22-.58.11-1.24.16-1.85.37-.55.19-1.06.22-1.5-.13-.7-.55-1.44-.56-2.24-.32-.68.68-.58,1.56-.49,2.32-.57.46-1.03.83-1.56,1.25Z"/>
      <path class="cls-16" d="M118.15,34.34c.74-.11,1.15-.28,1.39-.93-.75-.19-1.01.23-1.39.93Z"/>
      <path class="cls-12" d="M129.27,18.3c1.34-.34,2.68-.69,4.03-1.01.32-.08.66-.1.98-.08,2.52.15,5-.12,7.46-.62.18-.04.38-.02.57.02,1.9.35,3.82.29,5.74.21-.13.19-.39.41-.35.57.08.38.43.29.72.23.94.15,1.87.31,2.81.46.07.17.13.35.22.58-2.04.19-4.21-.39-5.95.94.51.57.98,1.09,1.45,1.61-.62.51-1.39.37-2.08.38-1.38,0-2.52.69-3.75,1.13-.06.02-.15.04-.17.09-.92,1.77-2.88,1.19-4.12,1.91-.39-.26-.67-.59-.97-.61-.58-.05-1.17.08-1.76.14-.19-.05-.39-.15-.57-.13-2.06.22-4.11-.1-6.16-.21-1.42-.07-2.75.08-4.02.4-.29.85-.5,1.61-.79,2.33-.11.29-.34.56-.59.75-.89.66-1.82,1.27-2.73,1.9,0,.36-.01.71-.02,1.07-.82.42-1.65.85-2.47,1.27-.21.02-.43.03-.64.05-.82-.47-1.7-.64-2.61-.43-.5.11-.88,0-1.28-.25-.33-.2-.65-.4-.98-.6-.35-.23-.11-.52-.07-.79.68-.02,1.32-.55,2.05-.15.1.05.41-.27.8-.55-.67-.22-1.09-.34-1.51-.5-.22-.08-.44-.18-.62-.33-.61-.51-.6-.52-1.05.23-.14.06-.28.12-.42.18-.36-.14-.98-.22-1.03-.44-.28-1.11-1.47-1.41-1.83-2.36-.4.12-.7.21-.97.29-.14-.16-.32-.28-.3-.35.15-.71-.35-1.1-.72-1.56-.33-.41-1.19-.45-.91-1.32.03-.08-.36-.39-.59-.44-.9-.21-1.82-.36-2.74-.52-.19-.03-.42-.07-.59,0-1.5.65-3,1.32-4.49,2-.09.04-.11.23-.13.28h-2.79s-.07-.07-.07-.07c-.12-.41-.23-.83-.35-1.26-.3.06-.55.12-.9.19.07.53.13,1.02.19,1.51-.2.13-.39.25-.59.38-1.01.67-1.72,1.52-1.61,3.25.56-.79.86-1.28,1.23-1.72.37-.45.81-.84,1.22-1.25-.58,1.24-1.13,2.49-1.75,3.7-.2.4-.52.84-.9,1.03-1.47.71-2.1,2.13-3,3.33-.34.17-.72.31-1.02.53-.22.17-.35.47-.52.71-1.43.2-2.95.19-4.28.67-1.54.56-3.13.87-4.89,1.34.41.32.68.53.98.77-.13.14-.23.35-.39.4-1.57.57-2.69,1.6-3.54,3.05-.63,1.07-1.51,1.98-2.27,2.97-.14.25-.29.5-.43.76,0,0,.01,0,.01,0-.36.56-.73,1.12-1.09,1.67-.85.14-1.29-.62-1.95-.9.48-1.88,1.46-3.5,3.02-5.08-.51-.05-.77-.16-.94-.08-.93.46-1.92.4-2.91.42-1.97.04-3.92.22-5.84.71-.81.21-1.73-.02-2.36.76-.07.08-.25.1-.38.1-1.58.02-3.16.03-4.74.04,0-.14,0-.27,0-.41.69-.55,1.46-.95,2.36-.92.97.02,1.81-.36,2.64-.76.24-.12.44-.32.69-.39,2.28-.63,4.46-1.71,6.91-1.48.63.06,1.22.03,1.72-.3,1.02-.67,2.17-.93,3.31-1.25.53-.03.75-.41.95-.83.45-.34.9-.67,1.36-1.01.84-.06,1.31-.83,2.05-1.08.39-.14.78-.27,1.18-.41,1.16.13,2.26-.08,3.28-.68.54.09,1.07.19,1.61.28.06.19.12.39.18.58.13-.09.25-.19.38-.28.47-.49,1.03-.85,1.72-.93,1.17-.13,2.03-.81,2.87-1.55-.19-.15-.38-.3-.65-.52.35-.26.72-.52,1.07-.79.44-.33.76-.73.75-1.32.28-.45.57-.88.82-1.34.62-1.15.9-2.46,1.76-3.51.26-.33.28-.86.46-1.47,1.77-.5,3.64-1.03,5.56-1.58-.04-.12-.11-.29-.17-.45.4-.27.8-.54,1.2-.81.3-.02.59-.04.89-.06,1.11.26,2.21.24,3.32-.1.76-.23,1.55-.4,2.34-.45.97-.06,2.01-.19,2.73.74.87-.1,1.37.79,2.21.82.3.01.6.24,1.05.44-.51.25-.9.43-1.49.71.65.24,1.13.37,1.55.59.46.24.87.58,1.39.93.59-.3,1.22-.54,1.75-.91,1.14-.8,2.45-1.09,3.77-1.1.96,0,1.86-.17,2.73-.47,1.7-.59,3.4-1.09,5.21-1.16.72-.03,1.44-.2,2.16-.3.13.13.27.26.4.38,0,.14,0,.27,0,.41-.15.19-.3.38-.68.85.88-.3,1.45-.5,2.02-.69-.05-.1-.11-.21-.16-.31,0-.09,0-.18,0-.27.35-.06.7-.12.82-.53ZM120.04,25.96c.12.02.25.08.37.06.12-.02.25-.09.32-.18.03-.04-.06-.26-.09-.27-.12,0-.25.04-.35.11-.09.07-.14.2-.21.3-.04.03-.09.05-.13.08-.02.02,0,.06,0,.09.03-.07.07-.14.1-.2ZM112.88,26.35c.64-.01,1.29.03,1.92-.06.55-.08.53-.46.24-.89-.79.14-1.68.05-2.15.95-.32.11-.79.08-.69.64,0,.05.09.11.14.12.6.05.42-.47.54-.77ZM123.27,21.19c-1.29.22-2.57.43-3.85.67-.05,0-.07.22-.1.34.04.05.09.14.13.14,1.34-.14,2.71-.2,3.8-1.18.18,0,.35.02.53.02.05,0,.09-.07.13-.1-.08-.07-.2-.21-.24-.19-.15.08-.27.2-.4.31ZM140.97,20.25c.23.21.4.52.57.51.92,0,1.77-.26,2.45-1.06-1.15-.38-2.05-.08-3.03.55ZM108.87,22.65q-1.24-.52-1.98-.39c.55.82,1.29.43,1.98.39ZM104.63,21.52c-.01-.11-.03-.22-.04-.33-.34.04-.68.07-1.02.11,0,.07.01.15.02.22h1.04ZM139.86,18.62c-.11-.03-.25-.12-.32-.08-.08.04-.11.2-.16.3.1.03.24.12.29.08.09-.06.13-.2.19-.3ZM136.54,21.37l.14.08v-.13s-.14.05-.14.05Z"/>
      <path class="cls-4" d="M64.96,79.15c.32-.04.68,0,.95-.14,1.86-.98,3.67-2.03,5.1-3.63.52-.28,1.03-.57,1.55-.85.24-.18.49-.35.73-.53l-.03.02c.22-.13.44-.26.66-.39.76-.39,1.08-1.13,1.42-1.85,1-.85,1.27-1.83.5-2.96-.37-.55-.45-1.14-.17-1.69.86-1.7,1.73-3.4,2.68-5.06,1.65-2.9,4.15-4.92,7.01-6.55.29-.16.57-.33,1-.58.27-1.03.56-2.17.86-3.32.29-.69.58-1.37.88-2.06.17.28.35.57.52.85,0,.88.78.71,1.26.94-.21.8-.86,1.49-.51,2.52.49-.2.96-.37,1.42-.58.41-.18.81-.39,1.22-.59-.14.37-.27.74-.44,1.1-.16.34,0,.49.29.58-.02.06-.06.13-.04.16.04.09.12.16.18.24,0,0,.04-.04.04-.04-.44-.1-.89-.21-1.53-.36-1.06.95-2.24,1.98-3.39,3.03-.19.17-.32.42-.42.66-.7,1.56-1.4,3.13-2.08,4.7-.03.08.08.22.13.34,0,0,.06.04.06.04-.37-.2-.37.1-.44.32-.27.43-.54.87-.81,1.3-.13-.05-.26-.04-.38.01-.04-1.63.61-3.09,1.1-4.59,0-.23,0-.45.01-.68-.15.09-.29.18-.44.28-1.66,1.34-3.09,2.83-4.07,4.79-.65,1.3-1.38,2.61-2.42,3.61.2.85.55,1.67.56,2.5.02,1.6-.67,2.92-1.98,3.91-.68.51-1.29,1.13-1.89,1.74-.28.28-.14.61.16.84,0,0,.06.02.06.02-.04-.65-.17-.8-.57-.58-.2.11-.33.37-.49.56h.02c-1.33-.31-2.29.47-3.11,1.26-.81.78-1.63,1.15-2.73,1.31-1.15.16-2.24.7-3.36,1.07-.63-.05-1.17.12-1.57.63-.4.13-.81.27-1.21.4.01-.19.02-.37.03-.56.13-.15.25-.3.38-.45.13-.21.27-.41.4-.62,1.11.03,1.95-.64,2.88-1.07Z"/>
      <path class="cls-5" d="M19.2,46.04c1.24-.85,2.47-1.72,3.73-2.55.26-.17.6-.22.91-.33,1.12-.4,2.24-.81,3.37-1.21,1.25.33,2.35.21,3.4-.73.75-.67,1.75-1.07,2.64-1.59.26-.03.55,0,.78-.11,1.72-.79,3.6-.84,5.42-1.15,1.11-.19,2.24-.27,3.35-.44.52-.08,1.07-.19,1.52-.44,1.92-1.09,4.1-1.48,6.09-2.38.48-.22.94-.48,1.37-.77,1.34-.89,2.75-1.53,4.4-1.57.32,0,.64-.15.96-.24,1.92-.52,3.83-1.05,5.75-1.58-.04.3.07.53.38.57.53.06,1.06.08,1.58.12,0,.11,0,.22,0,.34-1.13.28-2.27.56-3.4.85-1.13.29-2.27.47-3.24,1.26-1.05.85-2.24,1.53-3.36,2.29-.25.08-.5.15-.74.23-.25-.14-.87.21-.7-.52-.03-.09-.05-.18-.04-.13-.01-.04.02.06.06.16-.3-.03-.66-.19-.89-.08-.62.29-1.2.7-1.79,1.07-2.07,1.23-4.37,1.89-6.67,2.5-1.73.46-3.42.99-5.04,1.77-1.41.68-2.87,1.34-4.54,1.28-.17-.41.04-1.08-.72-1.12-.94-.04-1.84.02-2.72.42-2.59,1.19-5.2,2.33-7.78,3.52-.84.39-1.64.86-2.42,1.36-.81.51-1.34,1.25-1.54,2.22-.45,2.17-1.78,3.65-3.72,4.63.03-.69.06-1.37.08-2.06.04-.1.07-.21.1-.31.24-.1.55-.15.31-.52l-.03.02c.54.35.65-.08.8-.44h-.02c.36-.05.47-.28.45-.61.17-.45.33-.9.5-1.34.3-.68.61-1.36.91-2.03.17-.12.33-.24.5-.37Z"/>
      <path class="cls-20" d="M52.87,12c-1.11.05-2.26,0-3.02.97-.25-.11-.43-.27-.6-.26-1.17.06-1.88-.39-2.01-1.63-.07-.69-.58-1-1.37-1.16-.4.38-.87.82-1.33,1.26-1.16.31-2.2.02-3.21-.63,0-.81-.46-1.66.1-2.46.48-.69.89-1.49,2-1.43.07-.75.14-1.39.2-2.1,1-.46,2.02-1.08,3.26-.57.48-.36.95-.72,1.41-1.06,1.15-.21,2.64,1.07,3.74,3.27-.41.24-.82.48-1.32.77.18.25.33.44.48.64.14.37.29.74.43,1.1-.12.03-.24.05-.37.05-1.07-.02-2.13-.07-3.2.27,1.09-.11,2.01.91,3.15.37,1.01.05,2.02.11,3.02.16.16.43.31.86-.09,1.25-.42.4-.84.79-1.27,1.19Z"/>
      <path class="cls-4" d="M94.74,19.17c-4.98-.78-9.95-1.56-14.93-2.32-1.05-.16-2.12-.17-3.17-.33-1.04-.16-2.06-.43-3.39-.72-1.46.62-3.27,1.21-4.8,2.45-.71.58-1.59.94-2.4,1.4-.48-.59-1.1-.56-1.77-.45-.51.08-1.03.43-1.85.1.59-.35.95-.57,1.33-.79.55-.32,1.1-.63,1.66-.95,1.35-.17,2.51-.78,3.59-1.57.43-.31.81-.7,1.27-.95.43-.24.94-.36,1.49-.57-1.05-1.62-2.04-3.15-3.17-4.89-1.2-.59-2.73-.54-4.25-.51.09-.49.31-.81.87-.83.51-.01,1.01-.08,1.51-.12.04-.17.08-.34.12-.51.52.07,1.04.12,1.56.22,1.11.2,1.78.78,2.31,1.88.89,1.83,2.04,3.56,3.94,4.6.89.48,1.82.76,2.84.78,1.13.03,2.25.25,3.37.2,1.66-.09,3.24.27,4.84.57.22.04.48-.12.71-.18,0,0-.01-.06-.01-.06-.11.54.31.32.54.37.47.1.95.21,1.42.31.26.02.51.04.77.06.17.06.34.12.51.17q.18.98,1.11.9c1.37.33,2.73.67,4.1,1-.04.25-.07.5-.11.75Z"/>
      <path class="cls-21" d="M91.87,54.37c-.3-.09-.45-.24-.29-.58.17-.36.29-.73.44-1.1.14-.36.22-.76.42-1.09.57-.96,1.21-1.88,1.78-2.84.86-1.47,1.68-2.97,2.52-4.46.26-.59-.09-.77-.57-.86.82-.95,1.5-1.99,2.18-3.04,1.57-2.45,3.28-4.82,5.74-6.51-.13.6-.26,1.19-.45,2.05.44-.32.7-.52.96-.71.38-.2.77-.4,1.15-.6.25.2.5.4.75.59-.2.25-.39.5-.59.74-.21.25-.43.49-.64.74-.2.23-.4.46-.59.69-.12.14-.25.28-.38.41-.14.12-.27.24-.41.36-.13.11-.26.22-.39.32-.59.36-.87.84-.56,1.54-.25.2-.47.51-.75.57-.97.23-1.27.98-1.54,1.78l-.46,1.43c-.44.87-.86,1.73-.97,2.74-.06.54-.52,1.02-.71,1.56-.08.23.07.54.14.93-.92,1.03-1.94,2.19-2.97,3.35-.11-.04-.21-.05-.33-.02-.21-.21-.43-.42-.71-.7-.97.96-1.86,1.84-2.75,2.72ZM103.06,36.16c-.43.41-1.08.69-.95,1.52.78-.13.98-.69,1.26-1.19.2-.16.44-.33.14-.58-.05-.04-.29.16-.45.25Z"/>
      <path class="cls-5" d="M25.75,39.06l4.62-.11c.27.32.54.65.83,1-1.02.73-1.97,1.61-3.4,1.37-.16-.03-.34.15-.52.23-1.26.09-2.52.16-3.77.29-2.19.23-4.37.21-6.56.06-2.78-.19-5.56-.19-8.34-.28-.85-.18-1.7-.36-2.55-.54-.35-.11-.69-.3-1.04-.33-.7-.06-1.41-.03-2.12-.04l.42-.95c1.65-.19,3.3-.38,4.95-.57.2-.02.4-.05.6-.05,3,.04,6-.03,8.99.15,2.33.14,4.65.33,6.96-.14.31-.03.62-.06.93-.1ZM26.87,40.31c-.7-.48-1.4-.99-2.15,0h2.15ZM12.06,40.08v.2h1.23c0-.07,0-.14,0-.2h-1.24Z"/>
      <path class="cls-20" d="M65.42,17.56c-.55.32-1.11.63-1.66.95-.37.22-.74.44-1.33.79.83.33,1.34-.02,1.85-.1.68-.1,1.29-.14,1.77.45-.18.83-.37,1.67-.56,2.54-1.89.7-3.69,1.54-5.8,1.28-.15-.52-.27-.94-.42-1.48-1.16.19-1.89-.53-2.24-1.47-.44-1.18-.47-2.44.41-3.62.57.23,1.1.45,1.63.66.81-2.51.99-2.68,3.03-2.8,1.13.9,2.45,1.59,3.31,2.81Z"/>
      <path class="cls-10" d="M54.85,36.38c1.13-.76,2.31-1.44,3.36-2.29.97-.79,2.11-.98,3.24-1.26,1.13-.29,2.27-.56,3.4-.85.99,0,1.97.04,2.96,0,.51-.01,1.14.04,1.51-.23.81-.59,1.72-.59,2.62-.72.27.47.7.58,1.18.49.64-.12,1.29-.24,1.91-.44,1.47-.47,2.82-.48,3.94.79.21.23.49.4.74.59-1.02.6-2.11.81-3.28.68-.8-.51-.92-.47-1.18.41-.74.25-1.21,1.02-2.05,1.08v-1.3c-1.04.07-1.99.18-2.93.47-1.4.42-2.8.85-4.23,1.13-1.03.2-2.11.16-3.17.22-.46.02-.95-.05-1.24.43h.01c-.77,0-1.52.56-2.32.1-1.08.28-2.24.22-3.24.84-.42.26-.88.31-1.25-.14ZM76.31,32.09c.02.08.04.16.06.24.35-.04.69-.06,1.03-.13.06-.01.15-.22.12-.3-.03-.09-.2-.23-.26-.21-.33.11-.64.26-.96.4ZM66.64,34.22c-.63-.11-.8-.14-.98-.17,0,.1-.02.19-.02.29.18-.02.36-.04,1-.12Z"/>
      <path class="cls-10" d="M146.96,21.21c-.47-.52-.94-1.04-1.45-1.61,1.74-1.34,3.91-.75,5.95-.94-.09-.23-.15-.4-.22-.58q.24-.73-.41-.95c0-.1,0-.21,0-.31,1.18.06,2.38,0,3.52.2,2.11.38,4.08-.12,6.03-.75,1.05-.34,2.1-.27,3.15-.17.25.02.45.51.78.91-.62.12-1.04.19-1.57.29.2.15.28.26.37.26,1.06.05,2.12.06,3.18.14.17.01.32.34.48.52-.18.16-.35.43-.56.46-1.37.19-2.76.33-4.13.49-.26.03-.62-.03-.77.11-.76.72-1.69.72-2.62.65-.92-.07-1.8.51-2.74.09-.27-.12-.66-.05-.98,0-2.09.34-4.17.65-6.29.75-.58.02-1.15.29-1.72.44ZM161.41,16.88c-.21-.01-.37-.03-.53-.02,0,0-.04.23-.02.25.1.04.23.07.33.04.07-.02.11-.13.21-.26Z"/>
      <path class="cls-20" d="M67.41,100.02c-.21-.31-.37-.67-.63-.92-.42-.39-.92-.71-1.41-1.08.46-.99,1.1-1.72,1.83-2.37.55-.49,1.16-.29,1.35.41.36,1.33.69,1.69,2.1,2.29.18.08.35.18.52.28-.26,1.62-.52,3.24-.78,4.87-1.11.07-1.6.72-1.6,1.78,0,.45.05.9.08,1.35l.02-.02c-.5-.16-.71.14-.86.53-1.09.7-2.1.55-3.01-.2-.27-.85.34-1.3.66-1.93-.1-.47-.22-.97-.35-1.58-1.18-.41-2.12-1.16-2.51-2.57.34-.21.63-.52.97-.58.57-.1,1.11-.05,1.62-.51.46-.41.99-.01,1.41.33.2.75.39,1.5.59,2.24.71,0,.83-.51.73-.94-.12-.49-.46-.92-.7-1.38Z"/>
      <path class="cls-10" d="M100.62,42.37c.27-.8.57-1.55,1.54-1.78.28-.07.5-.38.75-.57.25-.2.51-.4.76-.61.67-.24,1.38-.44,1.22-1.4h0c.41.15.51-.02.4-.4l.06.04c.8-.2,1.2-.83,1.59-1.46,1.67-1.78,3.44-3.48,4.35-5.83,0,0-.04.04-.04.04.33.2.65.4.98.6.39.24.78.36,1.28.25.91-.21,1.8-.04,2.61.43-.02.37-.04.74-.05,1.11h0c-.13.14-.27.27-.4.4,0,0,0,0,0,0-1.3.33-2.17,1.21-3.19,2.35.57.03.88.04,1.19.05,0,0-.01-.01-.01-.01-.87.81-1.86,1.4-3.02,1.72-.61.17-1.16.44-1.63.99-.58.68-1.44,1.1-2.13,1.69-.33.28-.56.68-.84,1.02-.7.18-1.06.67-1.19,1.35-.14,0-.28-.02-.42-.03-.5-.76-1.09-.99-1.97-.53-.56.29-1.21.39-1.83.57Z"/>
      <path class="cls-20" d="M65.2,6.01c.45-1.02.37-1.99-.24-2.92-.53-.81-.11-1.64.06-2.45.38-.14.74-.3,1.11-.39.44-.11.93-.31,1.33-.2,1.31.36,2.6.82,3.88,1.3.27.1.49.4.69.64.6.69,1.19,1.39,1.73,2.03.08,1.49-.6,2.64-1.22,3.79-.39.72-1.31.82-1.54.14-.53-1.58-1.62-1.61-2.98-1.5-.88.07-1.85.13-2.82-.43Z"/>
      <path class="cls-20" d="M75.25,109.99c.76,1.33.46,2.51-.48,3.69-.39-.18-.73-.33-1.14-.52-.45.53-.88,1.09-1.38,1.6-.91.93-2.35.81-2.99-.35-.29-.51-.67-.75-1.1-1.05-.94-.65-1.43-1.53-1.17-2.71.2.1.57.31.59.28.48-.67,1.24-.56,2-.6.04-.66.07-1.22.11-1.77.23-.45.47-.91.7-1.36.74.26,1.47.51,2.28.8.38-.57.74-1.18,1.17-1.73.37-.47,1.06-.43,1.31.09.52,1.07.89,2.17.18,3.32-.25-.07-.5-.15-.76-.22-.14-.11-.27-.3-.42-.32-.13-.02-.28.15-.42.24.07.1.12.22.21.29.09.07.23.09.34.14.32.07.65.14.97.2Z"/>
      <path class="cls-20" d="M57.14,50.58c-.48-.26-1.08-.47-1.88-.34-.8.12-1.68-.19-2.5-.43-.34-.1-.66-.44-.87-.76-.65-.96-.2-2.03.93-2.27.36-.08.75-.05,1.16-.08-.65-1.28-.75-2.27-.17-2.81.82-.76,1.77-.87,2.73-.12.42-.26.8-.5,1.19-.74.71.45,1.49.78,1.83,1.69.13.36.67.56,1.17.95-.14.53-.13,1.37-.54,1.82-.91,1-1.07,2.68-3.05,3.08Z"/>
      <path class="cls-20" d="M67.98,57.2c.07.25.18.5.19.76.03.71-.34,1.22-.82,1.72-.53.55-1.11.23-1.77.23-.76,1.2-1.54,2.45-2.35,3.73-.59-.19-1.11-.39-1.23-1.1-.08-.51-.29-1.02-.33-1.53-.07-.98-.65-1.48-1.48-1.83-.64-.27-.86-.69-.6-1.19.4-.75.76-1.49,1.01-2.32.24-.79,1.06-1.24,1.83-1.37.77-.13,1.1-.65,1.5-1.16,1.82-.19,2.79.81,3.41,2.34-.04.87-.28,1.74,0,2.77.27-.44.45-.74.63-1.03ZM64.21,56.52c-.69.66-1.2,1.15-1.82,1.73.28.5-.12,1.19.46,1.77.61-.55,1.22-1.02,1.72-1.6.23-.26.35-.71.32-1.06-.02-.25-.37-.48-.68-.84Z"/>
      <path class="cls-20" d="M37.57,48.46c-.95-.12-1.22-1.36-2.26-.56-.05.34-.06.85-.19,1.33-.32,1.24-.97,1.77-2.23,1.9-.47.05-.75-.2-.87-.63-.03-.13-.03-.26-.04-.4-.17-2.17-.32-2.29-2.3-1.76-.74.2-1.44.15-2.12-.19-.64-.31-.88-.87-.45-1.46.41-.57.95-1.32,1.53-1.42,1.01-.18,1.56-.95,2.38-1.33.24-.11.44-.29.63-.43,2.43.48,2.72.9,1.93,2.98.35.12.7.24,1.08.36.21-.62.35-1.19.61-1.7.28-.55.75-1.02,1.43-.86.69.17,1.41.39,1.67,1.23.36,1.16-.12,2.04-.78,2.93Z"/>
      <path class="cls-20" d="M6.06,41.08c.85.18,1.7.36,2.55.54.11.17.19.36.33.5.75.75.88,1.57.43,2.53-.2.42-.31.87-.46,1.31-.49,1.36-1.46,2.09-2.88,1.81-1-.19-1.96-.21-2.94-.15-1.15.06-2.03-.44-2.72-1.34-.48-.63-.5-1.02.17-1.49.77-.53,1.25-1.16,1.11-2.11-.09-.67.34-.94.81-1.21,1-.26,1.89.18,2.66.52.39-.36.68-.63.96-.9ZM5.28,44.6c.12-.25.29-.45.25-.56-.08-.19-.3-.43-.46-.43-.17,0-.33.26-.5.41.17.14.34.27.71.58Z"/>
      <path class="cls-20" d="M6.74,56.3c.34.2.71.35,1.01.6.28.24.54.25.89.24,1.7-.06,2.56,1.05,2.09,2.67-.07.25-.18.5-.29.74-.37.8-.83.87-1.55.27-.24-.2-.49-.4-.76-.56-.08-.05-.25.05-.48.1-.04.34-.09.72-.12,1.1-.12,1.58-1.21,2.56-2.74,2.47-.61-.04-1.01-.38-1.02-.99,0-.38.1-.77.15-1.14-.87-.46-1.77-.79-2.23-1.68-.27-.52-.76-1.03-.31-1.64.37-.51.97-.46,1.46-.26.71.29,1.14-.04,1.55-.52.05-.06-.16-.33-.24-.51.79-.53,1.63-.89,2.59-.89ZM7.48,57.66c-.68.05-.81.6-1.26,1.05q1.1,0,1.26-1.05Z"/>
      <path class="cls-20" d="M19.2,46.04c-.17.12-.33.24-.5.37-.68.04-1.39-.05-1.93.28.39.67.71,1.21,1.02,1.76-.17.45-.33.9-.5,1.35-.23.15-.57.22-.45.63,0,0,.02-.01.02-.01-.52-.21-.65-.14-.8.44,0,0,.03-.02.03-.02-.14.03-.29.07-.43.1-.7-.13-1.55-.04-2.06-.43-1.13-.86-2.48-1.55-3.05-2.99-.07-.18-.19-.48-.11-.56.66-.65.24-1.48.43-2.2.21-.83,1.49-1.42,2.44-1.2.06.01.12.05.18.07.75.25,1.5.5,2.25.75,1.2-.91,1.81-.91,2.59.13.35.47.58,1.03.86,1.55ZM14.25,47.75c-.19-.35-.33-.72-.57-.99-.11-.13-.51-.17-.64-.07-.16.12-.26.45-.22.66.09.51.37.58,1.43.4Z"/>
      <path class="cls-3" d="M74.28,77.2s-.06-.02-.06-.02c-.09,1.65-.31,3.3-.25,4.94.08,2.24-.18,4.51.52,6.7.14.44.17.91.23,1.37.15,1.28-.17,2.43-1.04,3.4-.5-.39-.88-1.02-1.67-.81.32-1.12.19-2.25-.13-3.31-.73-2.39-.69-4.82-.57-7.27.05-1,.31-1.91,1.05-2.69.51-.55.83-1.29,1.2-1.96.03-.05-.2-.25-.31-.38,0,0-.02.01-.02.01.34.64.7.04,1.06.02Z"/>
      <path class="cls-20" d="M89.65,16.52c-.17-.06-.34-.12-.51-.17-.02-.22-.04-.45-.06-.67-.19.09-.4.16-.57.28-.08.06-.1.21-.14.33-.47-.1-.95-.21-1.42-.31-.18-.12-.36-.25-.54-.37,0,0,.01.06.01.06-.04-.38,0-.8-.14-1.14-.48-1.17-.02-2.24.37-3.28.17-.45.62-.95,1.06-1.12.64-.25,1.15-.62,1.67-1.03.24-.19.6-.28.91-.34.72-.14,1.07.08,1.35.81.09.24.12.5.17.76.25.02.45.02.63.07,1.1.25,1.78.82,1.73,1.6-.06.89-.35,1.7-1.36,1.97-.19.05-.38.11-.58.16-.19,0-.38,0-.58-.01-1.01-.08-1.6-.87-2.36-1.39-.12-.11-.3-.34-.36-.32-.34.15-.18.37,0,.56.16.67.33,1.33.49,2.01.75-.07,1.49-.13,2.24-.2,0,0,0-.02,0-.02-.53.55-1.07,1.1-1.6,1.66-.14.03-.28.07-.42.1Z"/>
      <path class="cls-20" d="M75.07,27.79c.53-.43.99-.8,1.56-1.25-.09-.76-.19-1.64.49-2.32.8-.24,1.54-.23,2.24.32.45.35.95.32,1.5.13.6-.21,1.26-.26,1.85-.37.67,1.25.49,2.23-.26,3.22-.5.67-.97,1.35-1.27,2.2-.42,1.19-1.43,1.37-2.58.61-.35-.23-.63-.37-1.06-.39-1.75-.06-1.79-.12-2.47-2.15Z"/>
      <path class="cls-20" d="M84.76,63.1c.42.15.82.39,1.25.43.67.07,1.15.41,1.41.96.61,1.29,1.16,2.6.61,4.1-.31.85-.84,1.33-1.72,1.39-.46.03-.92,0-1.46,0-.77.59-1.6,1.23-2.55,1.95-.44-.78-.44-1.46-.34-2.15-.76-.38-1.53-.74-1.99-1.63.26-.32.49-.61.73-.91.19-.24.53-.46.55-.71.08-1.02.72-1.32,1.59-1.4.21.3.47.36.8.21.23.75.45,1.5.68,2.27-.16.34-.29.71-.51,1.03-.2.3-.49.55-.9,1,.77-.07,1.31-.11,1.81-.15.16-.91.29-1.67.44-2.5-.92-.75-.86-1.78-.67-2.84.35-.26.67-.53.34-1.02l-.06-.04Z"/>
      <path class="cls-20" d="M95.85,54.33c.88-.79,1.83-.41,2.52.14.7.56.74,1.48.41,2.38-.28.78-.46,1.61-.75,2.66-.4.51-1.2.52-1.99.42-.91-.12-1.8-.21-2.65.29-.22.13-.5.16-.76.18-.57.06-1.01-.34-1.07-.91-.01-.13,0-.26.03-.39.17-1.08.47-2.14.15-3.26-.09-.31.18-.73.29-1.1,0,0-.04.04-.04.04.79-.19,1.55-.6,2.39-.19.1.12.2.24.3.36.33.46.63.34.89-.07.1-.16.18-.35.26-.52,0,0,0-.02,0-.02ZM95.23,58.36c.73,0,1.27-.37,2.02-.88-.79-.25-1.36-.42-2.07-.64.03.56.05,1.05.08,1.55-.05.03-.12.05-.16.09-.02.02,0,.08-.01.11.05-.08.1-.15.14-.23Z"/>
      <path class="cls-20" d="M75.34,71.77c-.34.72-.66,1.46-1.42,1.85-.26.07-.68-.14-.66.39,0,0,.03-.02.03-.02-.5-.17-.72.04-.73.53-.52.28-1.03.57-1.55.85-1.3-.83-1.81-2.24-2.5-3.49-.2-.36-.2-.91-.11-1.34.12-.57.42-1.09.68-1.72.6.22,1.11.4,1.69.61.29-1.16.91-2.04,2.13-2.57.21.15.58.28.7.53.28.63.29,1.45.71,1.94.49.58.47,1.17.59,1.8.04.23.29.43.45.64ZM70.42,71.88c.63.23,1.08.4,1.55.56.03.01.09-.08.22-.2-.37-.6-.75-1.22-1.29-2.1-.19.69-.3,1.1-.48,1.74Z"/>
      <path class="cls-20" d="M70.83,44.44c.49-.2,1.02-.33,1.45-.61.58-.38,1.08-.29,1.68-.07.8.28,1.23.76,1.22,1.59,0,.45,0,.93-.15,1.35-.12.35-.15.58.09.89.14.18.24.49.2.71-.24,1.39-1.43,2.19-2.16,3.28-.44.65-1.28.62-1.99.72-.65.09-1.05-.27-.81-.93.26-.69-.41-1.11-.23-1.7.06-.13.12-.25.17-.38-.15,0-.31,0-.46,0-.34.07-.67.14-1.01.21-.05-.39-.09-.78-.14-1.16.57.11,1.14.26,1.72.3.95.07,1.88-.11,2.8-.35.12-.03.18-.33.26-.5.09-.17.18-.33.28-.5.06-.13.12-.26.18-.39-.16.03-.32.06-.48.09-.11.16-.21.32-.32.48-.7,0-1.4,0-1.95,0-.76-.71-1.05-1.35-.75-2.21.09-.27.01-.6,0-.91,0,0-.01,0-.01,0,.14.03.27.05.41.08Z"/>
      <path class="cls-10" d="M119.25,29.28c.91-.63,1.84-1.25,2.73-1.9.25-.18.48-.46.59-.75.29-.72.51-1.48.79-2.33,1.27-.32,2.6-.47,4.02-.4,2.05.11,4.1.42,6.16.21.18-.02.38.08.57.13-.08.1-.13.27-.23.3-2.01.73-4.04,1.43-6.33,1.93.08-.39.12-.6.17-.82.13-.03.26-.05.38-.1.05-.02.09-.09.13-.14-.11-.05-.23-.15-.33-.13-.11.02-.2.15-.3.24-1.55-.11-2.74.87-4.04,1.44-.5.22-.84.98-1.1,1.57-.45,1.02-1.12,1.84-2.15,2.17-1.2.38-2.01,1.21-2.85,2.04-.74.74-1.45,1.55-2.6,1.66h0c.27-.4.53-.81.8-1.21,0,0,0,0,0,0,.13-.13.27-.27.4-.4,0,0,0,0,0,0,.54-.2.82-.56.7-1.16.82-.42,1.65-.85,2.47-1.27.43-.09.66-.38.61-.79-.01-.12-.38-.19-.59-.28Z"/>
      <path class="cls-12" d="M72.01,92.78c.79-.21,1.17.42,1.67.81.62,1.6.56,2.91-.2,4.47-.06.12-.15.24-.16.36-.1,1.77-1.16,3.2-1.66,4.83-.41,1.32-.84,2.63-1.26,3.95-.23.45-.47.91-.7,1.36-.22.07-.46.12-.67.22-.28.13-.53.3-.8.45.16-.67.33-1.33.49-2,.06-.21.12-.42.17-.62,0,0-.02.02-.02.02,1.07-.77,1.26-1.97,1.52-3.13.26-1.62.52-3.25.78-4.87.28-.74.46-1.49.39-2.3-.04-.51.1-1.04.16-1.56.36-.32.32-.69.16-1.08.04-.3.09-.6.13-.9Z"/>
      <path class="cls-20" d="M104.83,42.36c.13-.69.49-1.17,1.19-1.35.38,0,.83-.13,1.13.03.45.24.85.65.89,1.24.03.39.04.78.07,1.23.37.16.73.31,1.08.46.86.38,1.4,1.16,1.2,1.99-.16.68-.27,1.45-1.1,1.95-.26-.18-.55-.4-.86-.6-.51-.34-1-.27-1.26.3-.66,1.47-1.86,1.72-3.37,1.64-.08-.71-.16-1.4-.23-2.08.9-.83,2.04-.69,3.2-.67.07-.71.14-1.34.2-1.95q-1.43-.83-2.15-2.19Z"/>
      <path class="cls-20" d="M79.28,92.64v1.55c-1.13.94-2.29.68-3.46.44-.44-1.44.89-1.75,1.58-2.55-.26-.31-.54-.58-.73-.91-.35-.59-.53-1.19-.11-1.85.43-.69.97-1.05,1.81-.91.45.08.92.08,1.47.13.59.67,1.67,1.16,1.2,2.4-.3.8-.66,1.66-1.8,1.49-.11-.16-.22-.33-.33-.49-.12-.24-.28-.42-.51-.14-.02.03.18.25.28.38.2.16.4.31.6.47Z"/>
      <path class="cls-20" d="M26.44,33.82c.13-.44.19-.92.4-1.32.54-1.01,1.69-1.18,2.42-.28.55.68,1.26.86,2.01,1.12,1.03.36,1.4,1.53.86,2.43-.76,1.29-2.38,1.68-3.58.84-.32-.22-.57-.54-.86-.82-.42-.66-.84-1.31-1.26-1.97Z"/>
      <path class="cls-3" d="M68.71,48.34c.05.39.09.78.14,1.16.04,1.95-.53,3.86-.35,5.84.05.6-.33,1.24-.52,1.86-.18.3-.36.59-.63,1.03-.29-1.04-.04-1.91,0-2.77.11-.57.4-1.17.29-1.69-.26-1.21-.62-2.42-1.1-3.56-.75-1.76-.41-3.29.67-4.75.08-.1.13-.23.2-.34.66.28,1.09,1.04,1.95.9-.36.32-.73.64-1.18,1.03.15.35.34.82.54,1.28Z"/>
      <path class="cls-20" d="M60.88,78.77c-.46.02-.94.14-1.37.03-1.37-.35-1.95-1.14-1.95-2.59,0-.58.11-1.16.16-1.71,1.34-.77,1.8.34,2.55,1.08.42-.25.81-.59,1.27-.73.56-.17,1.17-.19,1.76-.22.51-.03,1.07-.14,1.44.41.15.7-.92,1.01-.6,1.78-.75.58-1.52-.06-2.18-.02-.4.72-.73,1.34-1.07,1.96Z"/>
      <path class="cls-20" d="M88.14,47.66c-.61.33-1.15-.04-1.67-.24-.5-.19-.95-1.46-.76-2.08.24-.77.6-1.51,1.47-1.7.88-.2,1.79-.36,2.68-.38.59-.01,1.14.38,1.42.94.29.57.49,1.19.74,1.8-.61.3-1.1.54-1.59.78q-1.05-.44-1.62.48c-.07.11-.11.23-.17.34h.02c-.18.02-.35.04-.53.07Z"/>
      <path class="cls-20" d="M56.5,14.36c-.93.5-1.88.97-2.98.8-.24-.04-.46-.19-.77-.33.13-.87.74-1.61.44-2.48.61-.19,1.22-.37,1.78-.54-.02-.77-.03-1.52-.05-2.28.81.02,1.63.05,2.44.07.35,1.01.9,1.86,1.83,2.37-.64,1.68-1.16,2.17-2.49,2.43.06-.19.13-.37.18-.56.11-.47.65-.9.17-1.43-.03-.03-.12-.04-.16-.02-.65.3-.3.92-.41,1.39-.05.18.01.39.03.59Z"/>
      <path class="cls-23" d="M6.74,56.3c-.97,0-1.81.36-2.59.89-.51.03-1.02.07-1.5.1.84-.71,1.82-1.25,2.92-1.66,3.39-1.27,6.75-2.64,10.11-3.97-.03.69-.06,1.37-.08,2.06-1.29.95-2.73,1.45-4.34,1.46v.02c-.08-.11-.18-.23-.28-.34-.05.12-.1.23-.15.35,0,0,.01,0,.01,0-.16-.07-.33-.24-.46-.21-1.27.26-2.52.6-3.63,1.32Z"/>
      <path class="cls-13" d="M96.73,44.3c-.84,1.49-1.66,2.99-2.52,4.46-.56.96-1.21,1.88-1.78,2.84-.2.33-.28.72-.42,1.09-.41.2-.81.41-1.22.59-.46.2-.93.38-1.42.58-.35-1.03.3-1.72.51-2.52-.48-.23-1.27-.05-1.26-.94.28-.15.57-.3.85-.45.77.13,1.01-.5,1.36-.96.4-.53.75-1.1,1.55-1.03-.21.39-.41.77-.62,1.16-.15.32-.34.65.09.88.02.01.24-.34.36-.52.55-.81,1.12-1.61,1.65-2.43.12-.19.12-.46.17-.7,0,0-.01.01-.01.01.67.08.82-.55,1.18-.89.48-.43.73-1.14,1.52-1.18ZM91.55,50.52s-.08-.07-.1-.06c-.05.02-.08.07-.12.11.07.03.14.05.22.08,0-.04,0-.08,0-.12Z"/>
      <path class="cls-20" d="M59.71,5.53c-.34-.39-.69-.78-1.18-1.34.05-.33.03-.87.21-1.33.21-.53.64-.69,2.25-1.21.44.53.88,1.02,1.67,1.24,1.11.31,1.69,1.38,1.48,2.5-.07.38-.55.68-.85,1.02-.48,0-.96-.02-1.44-.03-.03-.49-.39-.68-.78-.75-.45-.08-.91-.08-1.37-.12Z"/>
      <path class="cls-20" d="M100.62,42.37c.61-.18,1.27-.28,1.83-.57.87-.45,1.47-.23,1.97.53.01.2-.04.42.04.59.31.68.45,1.34.28,2.11-.19.88-.87,1.26-1.48,1.75-1.39-.04-1.5-.11-1.63-1.28-.04-.37,0-.74,0-1.16-.54-.19-1-.36-1.47-.53.15-.48.31-.96.46-1.44Z"/>
      <path class="cls-6" d="M61.86,6.39c.48,0,.96.02,1.44.03.38.32,1.15.16,1.16.94-.08.17-.17.33-.33.66.92.16,1.76.07,2.59.1-.5.04-1.01.11-1.51.12-.56.02-.78.34-.87.83-.39,1.2-1.33,1.73-2.39,2.04-.81-.28-.68-.96-.81-1.52.48-.18.96-.37,1.63-.62-.31-.24-.57-.44-.82-.64-.29-.11-.58-.29-.87-.3-1.04-.03-2.08,0-3.12,0,0,0-.02.02-.02.02.4-.17.79-.39,1.2-.49.56-.13,1.14-.16,1.72-.24h.07q.82.25.72-.54c.07-.13.14-.26.21-.39Z"/>
      <path class="cls-20" d="M25.35,38.75c-.59-.57-.95-1.33-1.84-1.66-.71-.27-.57-1.78.13-2.44.77-.73,1.13-.73,2.46.02.19.49.39.99.58,1.48-.14,1.05-.45,2-1.41,2.61,0,0,.08,0,.08,0Z"/>
      <path class="cls-23" d="M61.96,8.33c.25.2.51.39.82.64-.67.26-1.15.44-1.63.62-1.26,0-2.52,0-3.77,0-.81-.02-1.63-.05-2.44-.07-.23.01-.46.02-.69.03-1.01-.05-2.02-.11-3.02-.16.02-.22.03-.43.05-.65.13,0,.25-.01.37-.05,1.88-.21,3.77-.41,5.66-.09.23.04.5-.13.74-.21,1.31-.03,2.62-.05,3.92-.08Z"/>
      <path class="cls-3" d="M71.94,31.04c-.9.13-1.81.13-2.62.72-.37.27-1,.22-1.51.23-.99.03-1.97,0-2.96,0,0-.11-.01-.22,0-.34q1.17-.05,1.39-.89c.55-.44,1.5-.07,1.87-.9.02-.05.1-.1.14-.1,1.28.1,2.61-.01,3.75.74.07.05-.03.36-.05.55Z"/>
      <path class="cls-11" d="M111.28,30.36c-.91,2.35-2.68,4.05-4.35,5.83,0-.09-.05-.16-.13-.21,0-.3.11-.65-.33-.76-.25-.2-.5-.4-.75-.59.78-.63,1.58-1.25,2.34-1.91.73-.64,1.38-1.37,2.11-2.01.29-.25.56-.82,1.11-.34Z"/>
      <path class="cls-20" d="M57.49,82.9c-.23-.23-.5-.43-.69-.68-.77-1.01-.73-1.11.5-1.79.11-.06.28-.08.33-.18.31-.57.72-.92,1.42-.73.83.22,1.34.74,1.52,1.58.03.13.06.25.09.38-.19.32-.39.63-.58.95,0,0,0,0,0,0-.76.25-1.53.5-2.29.76l-.3-.27Z"/>
      <path class="cls-20" d="M88.09,49.56c-.29.69-.58,1.37-.88,2.06-1.14.02-2.18-.22-3.01-1.17.4-.56.73-1.1,1.13-1.58.34-.41.79-.35,1.25-.16.47.19.95.53,1.41-.02.03.16.07.31.1.47,0,.14,0,.27-.01.41Z"/>
      <path class="cls-1" d="M103.26,46.77c.6-.49,1.29-.87,1.48-1.75.17-.77.03-1.43-.28-2.11-.08-.17-.03-.39-.04-.59.14,0,.28.02.42.03q.72,1.36,2.15,2.19c-.06.61-.13,1.24-.2,1.95-1.17-.02-2.3-.17-3.2.67-.11-.13-.21-.26-.32-.39Z"/>
      <path class="cls-17" d="M27.28,41.55c.17-.08.36-.26.52-.23,1.43.24,2.38-.64,3.4-1.37-.29-.35-.56-.68-.83-1,.81-.05,1.63-.1,2.47-.14.15.31.28.57.4.83-.89.52-1.88.92-2.64,1.59-1.05.93-2.15,1.05-3.4.73.03-.13.05-.26.08-.4Z"/>
      <path class="cls-23" d="M87.63,27.95c0,.59-.32.99-.75,1.32-.35.27-.72.53-1.07.79.27.22.46.37.65.52-1.23.17-2.46.35-3.7.52-.04-.64.19-1.19.69-1.15,1.5.11,2.45-.86,3.54-1.58.22-.14.44-.28.65-.42Z"/>
      <path class="cls-7" d="M64.96,79.15c-.93.44-1.78,1.11-2.88,1.07-.06-.1-.13-.12-.23-.06-.43-.41-.26-.92-.23-1.4.72-.86,1.57-1.42,2.76-1.1.11.53.79.84.59,1.49Z"/>
      <path class="cls-10" d="M58.03,8.42c-.25.07-.51.25-.74.21-1.9-.32-3.78-.12-5.66.09-.14-.37-.29-.74-.43-1.1,1.99-.02,3.98-.04,5.97-.05.26.17.52.33.78.5,0,0,.02-.02.02-.02-.01.13.01.26.07.38Z"/>
      <path class="cls-17" d="M85.27,34.4c.17-.24.3-.54.52-.71.3-.23.68-.36,1.02-.53.16.76-.38,1.56.16,2.32.41.57.83,1.16.95,1.86-.47.38-.74.04-.88-.18-.41-.68-.71-1.42-1.1-2.1-.15-.26-.45-.43-.68-.65Z"/>
      <path class="cls-20" d="M57.95,8.06c-.26-.17-.52-.33-.78-.5.08-.17.13-.44.26-.5.68-.3,1.28-.71,1.84-1.21.08-.07.25-.04.37-.05.68.29.82,1.01,1.22,1.52-.57.08-1.16.11-1.72.24-.42.1-.8.32-1.2.49Z"/>
      <path class="cls-8" d="M68.22,109.22c.27-.15.52-.32.8-.45.21-.1.45-.15.67-.22-.04.56-.07,1.11-.11,1.78-.75.04-1.52-.06-2,.6-.02.03-.39-.18-.59-.28.41-.48.82-.96,1.23-1.43Z"/>
      <path class="cls-23" d="M92.69,14.54c1.34.78,2.55,1.71,3.46,2.99-.4.05-.79.1-1.19.15-.85-.95-1.7-1.91-2.54-2.86.09-.09.19-.18.27-.28Z"/>
      <path class="cls-10" d="M92.47,25.1c-.41.42-.85.81-1.22,1.25-.37.44-.67.93-1.23,1.72-.1-1.74.6-2.58,1.61-3.25.19-.13.39-.25.59-.38,0,0-.03,0-.03,0-.09.29,0,.48.29.57v.1Z"/>
      <path class="cls-11" d="M110.85,28.31c.45-.75.44-.75,1.05-.23.18.15.4.25.62.33.41.16.84.28,1.51.5-.39.28-.7.61-.8.55-.74-.4-1.37.13-2.05.15-.11-.14-.22-.28-.33-.42.37-.29.18-.58,0-.87Z"/>
      <path class="cls-8" d="M66.23,30.75q-.22.84-1.39.89c-.53-.04-1.06-.06-1.58-.12-.31-.04-.42-.26-.38-.57,1.09-.52,2.2-.56,3.34-.21Z"/>
      <path class="cls-10" d="M50.74,37.11c.59-.36,1.16-.77,1.79-1.07.23-.11.59.04.89.08v-.02c-.19.72.43.37.68.51-.09.29-.17.57-.26.86-1.1-.13-2.1-.25-3.1-.36Z"/>
      <path class="cls-22" d="M6.06,41.08c-.29.27-.57.53-.96.9-.77-.34-1.66-.78-2.66-.52,0-.22,0-.44,0-.66.15-.03.31-.06.46-.08.71,0,1.42-.02,2.12.04.35.03.69.21,1.04.33Z"/>
      <path class="cls-22" d="M64.37,77.66c-1.19-.31-2.03.25-2.76,1.1-.24,0-.49,0-.73.01.34-.62.68-1.24,1.07-1.96.65-.04,1.43.59,2.18.02.08.28.16.55.24.83Z"/>
      <path class="cls-23" d="M96.73,44.3c-.79.03-1.04.74-1.52,1.18-.36.33-.51.96-1.18.89-.03-.15-.15-.38-.09-.45.72-.84,1.47-1.65,2.21-2.47.49.09.83.27.57.86Z"/>
      <path class="cls-11" d="M94.96,17.68c.4-.05.79-.1,1.19-.15.13,0,.23.05.28.17-.06.62.63.66.82,1.08-.4.27-.8.54-1.2.81-.27-.11-.55-.22-.82-.33-.13-.22-.27-.33-.49-.1,0,0,0,0,0,0,.04-.25.07-.5.11-.75.47-.18.21-.47.11-.74Z"/>
      <path class="cls-17" d="M2.9,40.71c-.15.03-.31.06-.46.08-.66,0-1.31,0-2.04,0,.74-.82.91-.87,2.93-1.03-.14.32-.28.63-.42.95Z"/>
      <path class="cls-2" d="M60.87,7.33c-.4-.51-.54-1.23-1.22-1.52-.03-.11-.01-.2.07-.27.46.04.92.03,1.37.12.39.07.75.26.78.75-.07.13-.14.26-.21.39-.24.18-.48.36-.72.54,0,0-.07,0-.07,0Z"/>
      <path class="cls-13" d="M54.23,9.57c.23-.01.46-.02.69-.03.02.75.03,1.51.05,2.28-.56.17-1.17.36-1.78.54-.11-.12-.21-.24-.32-.35.42-.4.85-.79,1.27-1.19.41-.39.26-.82.09-1.25Z"/>
      <path class="cls-23" d="M94.03,46.35c-.05.24-.05.51-.17.7-.53.82-1.1,1.62-1.65,2.43-.15-.12-.31-.24-.46-.36.21-.39.41-.77.62-1.16.41-.56.8-1.12,1.23-1.66.05-.06.28.03.43.05Z"/>
      <path class="cls-19" d="M88.1,49.15c-.03-.16-.07-.31-.1-.47-.03-.11,0-.21.09-.28.19-.27.38-.54.58-.82,0,0-.02,0-.02,0,.31-.06.62-.15.93-.17.16-.01.32.09.49.14-.12.44-.23.87-.35,1.31,0,0,.03-.05.03-.05-.38.06-.65.81-1.15.17-.04-.05-.32.1-.49.16Z"/>
      <path class="cls-10" d="M71.85,35.65c-.2.41-.42.8-.95.83,0-.49-.18-.87-.74-.89-.44-.02-.88,0-1.32,0v.02c.61-.25,1.2-.56,1.82-.72.58-.14,1.02.15,1.18.77Z"/>
      <path class="cls-8" d="M53.25,41.59c0,.14,0,.27,0,.41-.89.51-1.81.96-3.15.79,1.05-.92,2.16-.91,3.16-1.19Z"/>
      <path class="cls-23" d="M95.85,54.33s0,.02,0,.02c-.56-.28-.71-.2-1.15.59-.1-.12-.2-.24-.3-.36.31-.74.62-1.48.93-2.22.11-.03.22-.02.33.02-.04.44-.12.89-.1,1.33,0,.21.19.42.3.62Z"/>
      <path class="cls-14" d="M67.41,100.02c.24.46.59.89.7,1.38.1.43-.02.93-.73.94-.2-.74-.39-1.49-.59-2.24.21-.03.41-.05.62-.08Z"/>
      <path class="cls-23" d="M127.27,18.84c-.13-.13-.27-.26-.4-.38.78-.39,1.56-.72,2.4-.16-.12.41-.47.47-.82.53-.39,0-.79,0-1.18.01Z"/>
      <path class="cls-8" d="M57.49,82.9c.1.09.2.18.3.27-.05.22-.1.43-.15.65-.54.69-1.36.65-2.19.71.68-.55,1.35-1.09,2.03-1.64Z"/>
      <path class="cls-8" d="M150.83,16.82c0,.1,0,.21,0,.31-.52.02-1.05,0-1.57.09-.29.05-.55.26-.83.4-.29.06-.64.15-.72-.23-.03-.16.23-.38.35-.57.93-.37,1.85.08,2.78,0Z"/>
      <path class="cls-14" d="M90.07,47.56c-.16-.05-.33-.15-.49-.14-.31.03-.62.11-.93.17.05-.11.1-.23.17-.34q.57-.93,1.62-.48c.1.27.34.55-.02.81-.12.01-.23,0-.35-.02Z"/>
      <path class="cls-6" d="M88.1,49.15c.17-.06.46-.21.49-.16.5.64.77-.11,1.15-.17-.09.38-.19.76-.28,1.14-.28.15-.57.3-.85.45-.17-.28-.35-.56-.52-.85,0-.14,0-.27.01-.41Z"/>
      <path class="cls-14" d="M26.68,36.15c-.19-.49-.39-.99-.58-1.48.12-.28.23-.57.35-.85.42.66.84,1.31,1.26,1.97-.34.12-.68.24-1.02.36Z"/>
      <path class="cls-23" d="M57.65,83.82c.05-.22.1-.43.15-.65.76-.25,1.53-.5,2.29-.75-.41.27-.82.56-1.25.81-.38.22-.79.4-1.19.59Z"/>
      <path class="cls-8" d="M104.58,35.23c-.26.2-.53.39-.96.71.19-.86.32-1.45.45-2.05.23-.22.52-.45.59.07.06.41-.05.85-.08,1.27Z"/>
      <path class="cls-10" d="M56.5,14.36c-.01-.2-.07-.41-.03-.59.12-.47-.24-1.09.41-1.39.04-.02.13-.01.16.02.48.54-.06.96-.17,1.43-.04.19-.12.38-.18.56,0,0-.11.03-.11.03l-.09-.07Z"/>
      <path class="cls-23" d="M97.26,18.78c-.19-.42-.89-.46-.82-1.08.66.19,1.36.32,1.72,1.02-.3.02-.59.04-.89.06Z"/>
      <path class="cls-23" d="M60.09,82.42c.19-.32.39-.63.58-.95.21-.06.42-.12.62-.19-.01.19-.02.37-.03.56-.39.19-.78.38-1.17.57Z"/>
      <path class="cls-9" d="M66.73,8.12c-.83-.03-1.67.07-2.59-.1.16-.33.25-.49.33-.66.79.08,1.59.16,2.38.25-.04.17-.08.34-.12.51Z"/>
      <path class="cls-2" d="M118.15,34.34c.39-.69.65-1.12,1.39-.93-.24.65-.66.82-1.39.93Z"/>
      <path class="cls-23" d="M62.47,81.45c.4-.51.94-.68,1.57-.63-.38.57-.83.95-1.57.63Z"/>
      <path class="cls-3" d="M71.88,93.68c.16.39.2.77-.16,1.08-.22-.4-.18-.76.16-1.08Z"/>
      <path class="cls-23" d="M91.66,14.11c.19,0,.38,0,.58.01.15.14.3.28.45.42-.09.1-.18.19-.27.28-.25-.02-.5-.04-.75-.06,0,0,0,.02,0,.02,0-.22-.01-.44-.02-.67Z"/>
      <path class="cls-23" d="M83.63,65.35c-.32.15-.59.08-.8-.21.12-.12.24-.24.36-.36.12-.05.25-.06.38-.01.02.2.04.39.06.59Z"/>
      <path class="cls-6" d="M90.07,47.56c.11.02.23.03.35.02-.23.43-.46.86-.7,1.29.12-.44.23-.87.35-1.31Z"/>
      <path class="cls-10" d="M110.85,28.31c.18.29.37.58,0,.87-.14-.23-.28-.46-.42-.69.14-.06.28-.12.42-.18Z"/>
      <path class="cls-12" d="M92.48,25.01c-.29-.09-.39-.28-.29-.57.36-.15.73-.29,1.09-.44,0,0,.07.07.07.07-.29.31-.58.63-.87.94Z"/>
      <path class="cls-10" d="M81.87,33.05c-.13.09-.25.19-.38.28-.06-.19-.12-.39-.18-.58.19.1.37.2.56.3Z"/>
      <path class="cls-10" d="M68.85,35.58c-.08.08-.14.2-.24.24-.06.02-.16-.07-.25-.11.05-.02.1-.06.16-.07.11-.02.23-.03.34-.04,0,0-.01-.02-.01-.02Z"/>
      <path class="cls-10" d="M78.91,91.93c.11.16.22.33.33.49.08.06.09.13.04.22-.2-.16-.4-.31-.6-.47.08-.08.16-.16.23-.24Z"/>
      <path class="cls-17" d="M25.35,38.75s-.08,0-.08,0c.16.1.32.2.48.3-.31.03-.62.06-.93.1.18-.14.35-.27.53-.41Z"/>
      <path class="cls-22" d="M68.88,106.6c-.06.21-.12.42-.17.62-.23-.03-.46-.06-.69-.09.15-.39.36-.7.86-.53Z"/>
      <path class="cls-14" d="M74.58,109.45c.25.07.5.15.76.22.03.12,0,.23-.08.32-.32-.07-.65-.14-.97-.2.1-.11.2-.23.3-.34Z"/>
      <path class="cls-24" d="M70.83,44.44c-.14-.02-.27-.05-.41-.08.14-.25.29-.5.43-.76,0,.28-.02.55-.03.83Z"/>
      <path class="cls-14" d="M88.67,47.59c-.19.27-.38.54-.58.82.02-.25.03-.49.05-.74.18-.03.35-.05.53-.08Z"/>
      <path class="cls-4" d="M94.75,19.16c.21-.23.36-.13.49.1-.16-.03-.33-.06-.49-.1Z"/>
      <path class="cls-10" d="M15.66,50.92c.14-.03.29-.07.43-.1.24.37-.07.43-.31.52-.04-.14-.08-.28-.13-.42Z"/>
      <path class="cls-23" d="M11.25,55.18c-.14,0-.28,0-.42.01,0,0-.01.01-.01.01.15,0,.29,0,.44,0v-.02Z"/>
      <path class="cls-10" d="M61.64,35.59s.09.05.13.08c-.04-.03-.08-.06-.12-.09,0,0-.01.01-.01.01Z"/>
      <path class="cls-22" d="M61.84,80.16c.1-.06.18-.04.23.06-.13.21-.27.41-.4.62.06-.23.11-.46.17-.68Z"/>
      <path class="cls-10" d="M114.05,35.18c-.13.13-.27.27-.4.4,0,0,.01.01.01.01.13-.13.27-.27.4-.4,0,0,0,0,0,0Z"/>
      <path class="cls-10" d="M114.46,34.78c-.13.13-.27.27-.4.4,0,0,0,0,0,0,.13-.13.27-.27.4-.4,0,0,0,0,0,0Z"/>
      <path class="cls-10" d="M114.86,34.39c-.14.13-.27.26-.41.39,0,0,0,0,0,0,.13-.13.27-.27.4-.4,0,0,0,0,0,0Z"/>
      <path class="cls-24" d="M68.71,48.34c-.2-.46-.39-.93-.54-1.28.45-.4.82-.72,1.18-1.03.36-.56.73-1.12,1.09-1.67,0,.31.08.64,0,.91-.29.85,0,1.5.75,2.21.55,0,1.25,0,1.95,0,.12.11.23.21.35.32-.09.17-.14.47-.26.5-.91.24-1.85.42-2.8.35-.58-.04-1.14-.2-1.72-.3Z"/>
      <path class="cls-17" d="M123.24,21.16c-1.08.98-2.45,1.04-3.8,1.18-.04,0-.09-.09-.13-.14.03-.12.05-.33.1-.34,1.28-.24,2.57-.45,3.85-.67l-.02-.03Z"/>
      <path class="cls-8" d="M140.97,20.25c.97-.63,1.87-.93,3.03-.55-.69.8-1.53,1.05-2.45,1.06-.17,0-.35-.3-.57-.51Z"/>
      <path class="cls-10" d="M112.89,26.36c.47-.91,1.36-.81,2.15-.95.29.43.31.81-.24.89-.63.09-1.28.05-1.92.06h0Z"/>
      <path class="cls-16" d="M148.43,17.61c.28-.14.54-.35.83-.4.51-.08,1.04-.06,1.57-.09q.66.21.41.95c-.94-.15-1.87-.31-2.81-.46Z"/>
      <path class="cls-8" d="M93.28,24c-.36.15-.73.29-1.09.44,0,0,.03,0,.03,0-.06-.49-.13-.99-.19-1.51.35-.07.6-.13.9-.19.12.43.24.85.35,1.26Z"/>
      <path class="cls-17" d="M108.87,22.65c-.68.03-1.43.42-1.98-.39q.73-.12,1.98.39Z"/>
      <path class="cls-23" d="M128.45,19.1c.05.1.11.21.16.31-.57.2-1.14.39-2.02.69.38-.48.53-.66.68-.85.39-.05.78-.1,1.17-.15Z"/>
      <path class="cls-17" d="M119.25,29.28c.21.09.57.16.59.28.05.4-.18.7-.61.79,0-.36.01-.71.02-1.07Z"/>
      <path class="cls-16" d="M75.26,33.56c.25-.88.38-.92,1.18-.41-.39.14-.78.27-1.18.41Z"/>
      <path class="cls-17" d="M112.88,26.35c-.12.3.06.81-.54.77-.05,0-.13-.07-.14-.12-.1-.56.36-.53.69-.64,0,0,0,0,0,0Z"/>
      <path class="cls-17" d="M104.63,21.52h-1.04c0-.07-.01-.15-.02-.22.34-.04.68-.07,1.02-.11.01.11.03.22.04.33Z"/>
      <path class="cls-18" d="M128.45,19.1c-.39.05-.78.1-1.17.15,0-.14,0-.27,0-.41.39,0,.79,0,1.18,0,0,.09,0,.18,0,.27Z"/>
      <path class="cls-23" d="M139.86,18.62c-.06.11-.1.24-.19.3-.06.04-.19-.05-.29-.08.05-.11.07-.26.16-.3.08-.04.21.05.32.08Z"/>
      <path class="cls-1" d="M116.75,31.62c.12.6-.15.96-.7,1.16.02-.37.04-.74.05-1.11.21-.02.43-.03.64-.05Z"/>
      <path class="cls-17" d="M120.07,25.99c.07-.1.12-.23.21-.3.09-.07.23-.11.35-.11.04,0,.13.22.09.27-.07.09-.2.16-.32.18-.12.02-.24-.04-.37-.06l.03.03Z"/>
      <path class="cls-17" d="M123.27,21.19c.13-.11.25-.23.4-.31.04-.02.16.12.24.19-.04.04-.09.1-.13.1-.18,0-.35-.01-.53-.02,0,0,.02.03.02.03Z"/>
      <polygon class="cls-23" points="136.54 21.37 136.7 21.32 136.68 21.45 136.54 21.37"/>
      <path class="cls-17" d="M120.04,25.96c-.03.07-.07.14-.1.2,0-.03,0-.08,0-.09.03-.04.08-.06.13-.08,0,0-.03-.03-.03-.03Z"/>
      <path class="cls-2" d="M83.63,65.35c-.02-.2-.04-.39-.06-.59.27-.43.54-.87.81-1.3l.1.69c-.19,1.06-.24,2.09.67,2.84-.15.83-.28,1.59-.44,2.5-.5.04-1.04.09-1.81.15.42-.46.7-.7.9-1,.21-.32.34-.7.51-1.03-.23-.77-.46-1.52-.68-2.27Z"/>
      <path class="cls-13" d="M95.33,52.36c-.31.74-.62,1.48-.93,2.22-.83-.4-1.6,0-2.39.19-.06-.08-.14-.15-.18-.24-.02-.04.03-.11.04-.16.89-.88,1.78-1.76,2.75-2.72.28.28.49.49.71.7Z"/>
      <path class="cls-16" d="M84.48,64.16l-.1-.69c.07-.22.07-.52.44-.32.33.49.01.76-.34,1.02Z"/>
      <path class="cls-10" d="M73.25,74.01c-.01-.53.41-.32.66-.39-.22.13-.44.26-.66.39Z"/>
      <path class="cls-10" d="M72.55,74.52c.01-.49.23-.7.73-.53-.24.18-.49.35-.73.53Z"/>
      <path class="cls-16" d="M74.28,77.2c-.35.02-.72.63-1.06-.02.16-.19.29-.45.49-.56.4-.22.53-.07.57.58Z"/>
      <path class="cls-16" d="M83.87,59.78c.15-.09.29-.18.44-.28,0,.23,0,.45-.01.68-.14-.13-.29-.27-.43-.4Z"/>
      <path class="cls-10" d="M17.79,48.44c-.32-.55-.63-1.09-1.02-1.76.54-.32,1.25-.24,1.93-.28-.3.68-.61,1.36-.91,2.03Z"/>
      <path class="cls-10" d="M16.06,50.84c.16-.58.28-.65.8-.44-.15.36-.26.79-.8.44Z"/>
      <path class="cls-10" d="M16.85,50.41c-.12-.4.22-.48.45-.63.02.33-.09.57-.45.63Z"/>
      <path class="cls-10" d="M53.42,36.12c-.03-.1-.07-.19-.06-.16-.01-.05.01.04.04.13,0,0,.02.03.02.03Z"/>
      <path class="cls-6" d="M51.26,8.76c-.02.22-.03.43-.05.65-1.14.54-2.06-.49-3.15-.37,1.07-.34,2.14-.29,3.2-.27Z"/>
      <path class="cls-10" d="M91.67,14.76c.25.02.5.04.75.06.85.95,1.69,1.91,2.54,2.86.1.27.36.56-.11.74-1.37-.33-2.73-.67-4.1-1-.13-.4.09-1.04-.68-1.01.53-.55,1.07-1.1,1.6-1.66Z"/>
      <path class="cls-11" d="M90.07,16.42c.77-.03.55.61.68,1.01q-.93.08-1.11-.9c.14-.03.28-.07.42-.1Z"/>
      <path class="cls-10" d="M88.37,16.29c.05-.11.06-.27.14-.33.17-.12.38-.19.57-.28.02.22.04.45.06.67-.26-.02-.51-.04-.77-.06Z"/>
      <path class="cls-16" d="M86.41,15.6c.18.12.36.25.54.37-.23-.05-.64.16-.54-.37Z"/>
      <path class="cls-23" d="M106.94,36.19c-.4.63-.8,1.26-1.59,1.46-.03-.32-.07-.63-.1-.95.21-.25.43-.49.64-.74.31,0,.62.01.92.02.08.05.12.12.13.21Z"/>
      <path class="cls-8" d="M103.37,36.49c-.28.49-.49,1.06-1.26,1.19-.12-.82.52-1.11.95-1.52.1.11.21.22.31.33Z"/>
      <path class="cls-17" d="M103.67,39.41c-.25.2-.51.4-.76.61-.31-.69-.03-1.17.56-1.54.11.14.21.27.32.41-.04.17-.08.35-.12.52Z"/>
      <path class="cls-17" d="M106.81,35.98c-.31,0-.62-.01-.92-.02.2-.25.39-.5.59-.74.45.11.34.46.33.76Z"/>
      <path class="cls-17" d="M105.24,36.7c.03.32.07.63.1.95,0,0-.06-.04-.06-.04-.14-.01-.29-.02-.43-.03-.06-.07-.13-.14-.21-.2.2-.23.4-.46.6-.69Z"/>
      <path class="cls-17" d="M103.47,38.48c.13-.11.26-.22.39-.32.09.1.18.2.28.3-.12.14-.23.29-.35.43-.11-.14-.21-.27-.32-.41Z"/>
      <path class="cls-17" d="M103.86,38.16c.14-.12.27-.24.41-.36.06.07.13.13.19.2-.11.15-.22.31-.33.46l-.28-.3Z"/>
      <path class="cls-17" d="M104.27,37.8c.13-.14.25-.28.38-.41.07.06.14.12.21.2,0,.14.02.29.03.43,0,0,0,0,0,0-.14,0-.28,0-.42-.01-.07-.06-.13-.13-.19-.2Z"/>
      <path class="cls-8" d="M103.06,36.16c.15-.09.4-.29.45-.25.3.25.06.42-.14.58-.1-.11-.21-.22-.31-.33Z"/>
      <path class="cls-11" d="M26.87,40.31h-2.15c.75-.99,1.45-.48,2.15,0Z"/>
      <path class="cls-11" d="M12.06,40.08h1.24c0,.07,0,.14,0,.2h-1.23v-.2Z"/>
      <path class="cls-16" d="M76.31,32.09c.32-.14.63-.29.96-.4.06-.02.24.12.26.21.03.09-.06.29-.12.3-.34.07-.69.09-1.03.13-.02-.08-.04-.16-.06-.24Z"/>
      <path class="cls-16" d="M66.64,34.22c-.64.08-.82.1-1,.12,0-.1.02-.19.02-.29.17.03.35.06.98.17Z"/>
      <path class="cls-15" d="M161.41,16.88c-.1.13-.14.25-.21.26-.1.03-.23,0-.33-.04-.03-.01,0-.25.02-.25.16,0,.32,0,.53.02Z"/>
      <path class="cls-22" d="M70.38,103.49c-.26,1.16-.45,2.36-1.52,3.13-.03-.45-.08-.9-.08-1.35,0-1.06.49-1.71,1.6-1.78Z"/>
      <path class="cls-1" d="M114.86,34.39c-.13.13-.27.27-.4.4-.13.13-.27.27-.4.4-.13.13-.27.27-.4.4-.31-.01-.62-.03-1.19-.05,1.03-1.14,1.9-2.03,3.19-2.35-.27.4-.53.8-.8,1.21Z"/>
      <path class="cls-23" d="M104.47,38c.14,0,.28,0,.42.01.16.96-.55,1.16-1.22,1.4.04-.17.08-.35.12-.52.12-.14.23-.29.35-.43.11-.15.22-.31.33-.46Z"/>
      <path class="cls-1" d="M116.06,32.78c-.13.13-.27.27-.4.4.13-.13.27-.27.4-.4Z"/>
      <path class="cls-23" d="M104.88,38.02c0-.14-.02-.29-.03-.43.14.01.29.02.43.03.1.37,0,.54-.4.4Z"/>
      <path class="cls-14" d="M74.28,109.79c-.12-.04-.25-.07-.34-.14-.09-.07-.14-.19-.21-.29.14-.09.3-.26.42-.24.15.02.28.21.42.32-.1.11-.2.23-.3.34Z"/>
      <path class="cls-24" d="M64.21,56.52c.31.37.66.59.68.84.03.35-.09.8-.32,1.06-.5.57-1.11,1.05-1.72,1.6-.58-.58-.18-1.27-.46-1.77.61-.58,1.12-1.07,1.82-1.73Z"/>
      <path class="cls-14" d="M5.28,44.6c-.37-.3-.54-.44-.71-.58.17-.15.33-.41.5-.41.16,0,.38.24.46.43.05.11-.13.31-.25.56Z"/>
      <path class="cls-14" d="M7.48,57.66q-.16,1.05-1.26,1.05c.45-.45.58-1,1.26-1.05Z"/>
      <path class="cls-14" d="M14.25,47.75c-1.06.18-1.34.12-1.43-.4-.04-.21.06-.54.22-.66.13-.1.53-.06.64.07.24.27.38.64.57.99Z"/>
      <path class="cls-13" d="M91.66,14.11c0,.22.01.44.02.67-.75.07-1.5.13-2.24.2-.17-.68-.33-1.34-.49-2.01.12-.08.24-.16.36-.24.75.51,1.34,1.31,2.36,1.39Z"/>
      <path class="cls-13" d="M88.95,12.97c-.17-.19-.33-.4,0-.56.06-.03.23.2.36.32-.12.08-.24.16-.36.24Z"/>
      <path class="cls-13" d="M95.26,58.39c-.02-.5-.05-.99-.08-1.55.71.22,1.28.4,2.07.64-.75.52-1.3.88-2.02.88l.03.02Z"/>
      <path class="cls-10" d="M94.7,54.94c.44-.79.59-.87,1.15-.59-.09.17-.16.36-.26.52-.26.4-.56.53-.89.07Z"/>
      <path class="cls-13" d="M95.23,58.36c-.05.08-.1.15-.14.23,0-.04,0-.09.01-.11.04-.04.11-.06.16-.09,0,0-.03-.02-.03-.02Z"/>
      <path class="cls-22" d="M70.42,71.88c.18-.64.29-1.05.48-1.74.54.89.92,1.5,1.29,2.1-.13.12-.19.21-.22.2-.46-.16-.92-.33-1.55-.56Z"/>
      <path class="cls-24" d="M73.45,46.99c.16-.03.32-.06.48-.08-.06.13-.12.26-.18.39-.1-.1-.21-.2-.31-.3Z"/>
      <path class="cls-24" d="M73.76,47.29c-.09.17-.19.33-.28.5-.12-.11-.23-.21-.35-.32.11-.16.21-.32.32-.48.1.1.2.2.31.3Z"/>
      <path class="cls-16" d="M69.86,49.29c.15,0,.31,0,.46,0-.06.13-.12.25-.17.38-.09-.13-.19-.25-.28-.38Z"/>
      <path class="cls-16" d="M127.6,25.51c.1-.08.19-.21.3-.24.09-.02.22.08.33.13-.04.05-.08.12-.13.14-.12.05-.26.07-.38.1,0,0-.12-.14-.12-.14Z"/>
      <path class="cls-10" d="M78.67,92.17c-.1-.13-.3-.35-.28-.38.24-.28.39-.1.51.14-.08.08-.15.16-.23.24Z"/>
      <path class="cls-16" d="M11.27,55.2c-.15,0-.29,0-.44,0,.05-.12.1-.23.15-.35.1.11.2.23.3.34Z"/>
      <path class="cls-17" d="M92.21,49.48c-.13.18-.34.53-.36.52-.43-.24-.25-.57-.09-.88.15.12.31.24.46.36Z"/>
      <path class="cls-17" d="M91.55,50.52s0,.08,0,.12c-.07-.03-.14-.05-.22-.08.04-.04.07-.09.12-.11.02,0,.07.04.1.06Z"/>
      <path class="cls-8" d="M158.38,101.85c-.07.17-.12.28-.16.38-.14-.06-.29-.11-.42-.2-.02-.01.07-.28.13-.29.14,0,.29.06.45.1Z"/>
      <path class="cls-19" d="M58.03,8.42c-.06-.12-.08-.25-.07-.38,1.04,0,2.08-.03,3.12,0,.29,0,.58.2.87.3-1.31.03-2.62.05-3.92.08Z"/>
      <path class="cls-20" d="M60.94,7.33c.24-.18.48-.36.72-.54q.11.79-.72.54Z"/>
    </g>
  </g>
</svg>